G04 EAGLE Gerber RS-274X export*
G75*
%MOMM*%
%FSLAX34Y34*%
%LPD*%
%INTop Copper*%
%IPPOS*%
%AMOC8*
5,1,8,0,0,1.08239X$1,22.5*%
G01*
%ADD10R,1.300000X1.500000*%
%ADD11R,1.500000X1.300000*%
%ADD12R,1.500000X0.635000*%
%ADD13R,0.635000X1.500000*%
%ADD14R,1.475000X0.600000*%
%ADD15R,0.600000X1.475000*%
%ADD16R,6.200000X5.800000*%
%ADD17R,3.000000X1.600000*%
%ADD18R,1.400000X0.700000*%
%ADD19R,0.350000X0.500000*%
%ADD20R,2.200000X2.500000*%
%ADD21R,2.000000X0.500000*%
%ADD22C,1.320800*%
%ADD23C,1.000000*%
%ADD24R,1.300000X3.800000*%
%ADD25C,0.812800*%
%ADD26C,0.406400*%
%ADD27C,0.304800*%
%ADD28C,0.609600*%

G36*
X513362Y121924D02*
X513362Y121924D01*
X513388Y121922D01*
X513535Y121944D01*
X513682Y121961D01*
X513707Y121969D01*
X513733Y121973D01*
X513871Y122028D01*
X514010Y122078D01*
X514032Y122092D01*
X514057Y122102D01*
X514178Y122187D01*
X514303Y122267D01*
X514321Y122286D01*
X514343Y122301D01*
X514442Y122411D01*
X514545Y122518D01*
X514559Y122540D01*
X514576Y122560D01*
X514648Y122690D01*
X514724Y122817D01*
X514732Y122842D01*
X514745Y122865D01*
X514785Y123008D01*
X514830Y123149D01*
X514832Y123175D01*
X514840Y123200D01*
X514859Y123444D01*
X514859Y302260D01*
X514856Y302286D01*
X514858Y302312D01*
X514836Y302459D01*
X514819Y302606D01*
X514811Y302631D01*
X514807Y302657D01*
X514752Y302795D01*
X514702Y302934D01*
X514688Y302956D01*
X514678Y302981D01*
X514594Y303102D01*
X514513Y303227D01*
X514494Y303245D01*
X514479Y303267D01*
X514369Y303366D01*
X514262Y303469D01*
X514240Y303483D01*
X514220Y303500D01*
X514090Y303572D01*
X513963Y303648D01*
X513938Y303656D01*
X513915Y303669D01*
X513772Y303709D01*
X513631Y303754D01*
X513605Y303756D01*
X513580Y303764D01*
X513336Y303783D01*
X379091Y303783D01*
X339343Y343531D01*
X339343Y369396D01*
X339329Y369521D01*
X339322Y369648D01*
X339309Y369694D01*
X339303Y369742D01*
X339261Y369861D01*
X339226Y369983D01*
X339202Y370025D01*
X339186Y370070D01*
X339117Y370176D01*
X339056Y370287D01*
X339016Y370333D01*
X338997Y370363D01*
X338962Y370396D01*
X338897Y370473D01*
X333641Y375729D01*
X333542Y375808D01*
X333448Y375892D01*
X333406Y375916D01*
X333368Y375946D01*
X333254Y376000D01*
X333143Y376061D01*
X333096Y376074D01*
X333053Y376095D01*
X332929Y376121D01*
X332808Y376156D01*
X332747Y376161D01*
X332712Y376168D01*
X332664Y376167D01*
X332564Y376175D01*
X322068Y376175D01*
X321175Y377068D01*
X321175Y377088D01*
X321172Y377114D01*
X321174Y377140D01*
X321152Y377287D01*
X321135Y377434D01*
X321127Y377459D01*
X321123Y377485D01*
X321068Y377623D01*
X321018Y377762D01*
X321004Y377784D01*
X320994Y377809D01*
X320909Y377930D01*
X320829Y378055D01*
X320810Y378073D01*
X320795Y378095D01*
X320685Y378194D01*
X320578Y378297D01*
X320556Y378311D01*
X320536Y378328D01*
X320406Y378400D01*
X320279Y378476D01*
X320254Y378484D01*
X320231Y378497D01*
X320088Y378537D01*
X319947Y378582D01*
X319921Y378584D01*
X319896Y378592D01*
X319652Y378611D01*
X302648Y378611D01*
X302622Y378608D01*
X302596Y378610D01*
X302449Y378588D01*
X302302Y378571D01*
X302277Y378563D01*
X302251Y378559D01*
X302113Y378504D01*
X301974Y378454D01*
X301952Y378440D01*
X301927Y378430D01*
X301806Y378345D01*
X301681Y378265D01*
X301663Y378246D01*
X301641Y378231D01*
X301542Y378121D01*
X301439Y378014D01*
X301425Y377992D01*
X301408Y377972D01*
X301336Y377842D01*
X301260Y377715D01*
X301252Y377690D01*
X301239Y377667D01*
X301199Y377524D01*
X301154Y377383D01*
X301152Y377357D01*
X301144Y377332D01*
X301125Y377088D01*
X301125Y377068D01*
X300232Y376175D01*
X283968Y376175D01*
X283075Y377068D01*
X283075Y377088D01*
X283072Y377114D01*
X283074Y377140D01*
X283052Y377287D01*
X283035Y377434D01*
X283027Y377459D01*
X283023Y377485D01*
X282968Y377623D01*
X282918Y377762D01*
X282904Y377784D01*
X282894Y377809D01*
X282809Y377930D01*
X282729Y378055D01*
X282710Y378073D01*
X282695Y378095D01*
X282585Y378194D01*
X282478Y378297D01*
X282456Y378311D01*
X282436Y378328D01*
X282306Y378400D01*
X282179Y378476D01*
X282154Y378484D01*
X282131Y378497D01*
X281988Y378537D01*
X281847Y378582D01*
X281821Y378584D01*
X281796Y378592D01*
X281552Y378611D01*
X276768Y378611D01*
X274714Y379462D01*
X272928Y381248D01*
X272928Y381249D01*
X256332Y397844D01*
X256331Y397845D01*
X256329Y397847D01*
X256192Y397955D01*
X256059Y398061D01*
X256057Y398062D01*
X256056Y398063D01*
X255838Y398174D01*
X255114Y398474D01*
X254759Y398829D01*
X254660Y398908D01*
X254566Y398992D01*
X254524Y399016D01*
X254486Y399046D01*
X254372Y399100D01*
X254261Y399161D01*
X254215Y399174D01*
X254171Y399195D01*
X254048Y399221D01*
X253926Y399256D01*
X253865Y399261D01*
X253830Y399268D01*
X253782Y399267D01*
X253682Y399275D01*
X250851Y399275D01*
X250800Y399269D01*
X250749Y399272D01*
X250628Y399250D01*
X250505Y399235D01*
X250457Y399218D01*
X250406Y399209D01*
X250293Y399160D01*
X250177Y399118D01*
X250134Y399090D01*
X250087Y399070D01*
X249988Y398996D01*
X249884Y398929D01*
X249848Y398892D01*
X249807Y398862D01*
X249728Y398767D01*
X249642Y398678D01*
X249615Y398634D01*
X249582Y398595D01*
X249526Y398485D01*
X249463Y398379D01*
X249447Y398331D01*
X249424Y398285D01*
X249394Y398165D01*
X249357Y398047D01*
X249352Y397996D01*
X249340Y397947D01*
X249338Y397823D01*
X249329Y397700D01*
X249336Y397649D01*
X249335Y397598D01*
X249380Y397358D01*
X249441Y397129D01*
X249441Y390943D01*
X245423Y390943D01*
X245423Y399336D01*
X247234Y399336D01*
X247463Y399275D01*
X247513Y399267D01*
X247562Y399252D01*
X247685Y399242D01*
X247807Y399223D01*
X247858Y399228D01*
X247909Y399224D01*
X248031Y399242D01*
X248155Y399252D01*
X248203Y399268D01*
X248254Y399275D01*
X248369Y399321D01*
X248487Y399359D01*
X248530Y399385D01*
X248578Y399404D01*
X248679Y399474D01*
X248785Y399538D01*
X248822Y399574D01*
X248864Y399603D01*
X248947Y399695D01*
X249036Y399781D01*
X249063Y399824D01*
X249097Y399862D01*
X249157Y399970D01*
X249224Y400074D01*
X249241Y400122D01*
X249266Y400167D01*
X249299Y400286D01*
X249341Y400402D01*
X249347Y400453D01*
X249361Y400502D01*
X249380Y400746D01*
X249380Y463757D01*
X249377Y463783D01*
X249379Y463809D01*
X249357Y463956D01*
X249340Y464103D01*
X249332Y464128D01*
X249328Y464154D01*
X249273Y464292D01*
X249223Y464431D01*
X249209Y464453D01*
X249199Y464478D01*
X249137Y464567D01*
X249194Y464536D01*
X249321Y464460D01*
X249346Y464452D01*
X249369Y464439D01*
X249512Y464399D01*
X249653Y464354D01*
X249679Y464352D01*
X249704Y464344D01*
X249948Y464325D01*
X255707Y464325D01*
X255833Y464339D01*
X255959Y464346D01*
X256005Y464359D01*
X256053Y464365D01*
X256172Y464407D01*
X256294Y464442D01*
X256336Y464466D01*
X256381Y464482D01*
X256488Y464551D01*
X256598Y464612D01*
X256644Y464652D01*
X256674Y464671D01*
X256708Y464706D01*
X256784Y464771D01*
X270175Y478162D01*
X270244Y478248D01*
X270319Y478328D01*
X270352Y478384D01*
X270392Y478435D01*
X270439Y478534D01*
X270494Y478630D01*
X270513Y478692D01*
X270541Y478750D01*
X270564Y478858D01*
X270596Y478963D01*
X270601Y479028D01*
X270614Y479091D01*
X270612Y479201D01*
X270620Y479311D01*
X270609Y479375D01*
X270608Y479439D01*
X270581Y479546D01*
X270564Y479655D01*
X270539Y479715D01*
X270523Y479777D01*
X270473Y479875D01*
X270431Y479977D01*
X270393Y480030D01*
X270364Y480087D01*
X270292Y480171D01*
X270228Y480260D01*
X270180Y480303D01*
X270138Y480353D01*
X270049Y480418D01*
X269967Y480491D01*
X269910Y480521D01*
X269857Y480560D01*
X269756Y480603D01*
X269659Y480655D01*
X269597Y480672D01*
X269537Y480698D01*
X269429Y480717D01*
X269323Y480746D01*
X269258Y480748D01*
X269194Y480759D01*
X269084Y480754D01*
X268975Y480757D01*
X268911Y480745D01*
X268846Y480741D01*
X268741Y480711D01*
X268633Y480690D01*
X268554Y480657D01*
X268511Y480645D01*
X268475Y480625D01*
X268407Y480596D01*
X267670Y480221D01*
X266302Y479776D01*
X266191Y479759D01*
X266191Y493269D01*
X273305Y493269D01*
X273305Y487976D01*
X273080Y486554D01*
X272635Y485186D01*
X271981Y483903D01*
X271936Y483841D01*
X271884Y483749D01*
X271824Y483662D01*
X271799Y483598D01*
X271765Y483537D01*
X271735Y483436D01*
X271696Y483338D01*
X271686Y483269D01*
X271667Y483203D01*
X271661Y483097D01*
X271646Y482993D01*
X271651Y482924D01*
X271648Y482855D01*
X271666Y482751D01*
X271675Y482646D01*
X271696Y482580D01*
X271708Y482511D01*
X271749Y482415D01*
X271782Y482314D01*
X271818Y482255D01*
X271845Y482191D01*
X271907Y482106D01*
X271961Y482016D01*
X272010Y481966D01*
X272051Y481910D01*
X272131Y481841D01*
X272204Y481766D01*
X272263Y481728D01*
X272316Y481683D01*
X272409Y481634D01*
X272498Y481578D01*
X272563Y481554D01*
X272625Y481522D01*
X272727Y481496D01*
X272826Y481461D01*
X272895Y481453D01*
X272962Y481436D01*
X273068Y481434D01*
X273172Y481422D01*
X273241Y481430D01*
X273311Y481429D01*
X273414Y481450D01*
X273518Y481463D01*
X273606Y481491D01*
X273652Y481501D01*
X273687Y481517D01*
X273751Y481538D01*
X275090Y482093D01*
X276137Y482093D01*
X276286Y482110D01*
X276436Y482122D01*
X276459Y482130D01*
X276483Y482133D01*
X276625Y482183D01*
X276768Y482229D01*
X276789Y482242D01*
X276811Y482250D01*
X276938Y482332D01*
X277066Y482409D01*
X277084Y482426D01*
X277104Y482439D01*
X277209Y482548D01*
X277316Y482652D01*
X277329Y482672D01*
X277346Y482690D01*
X277424Y482819D01*
X277505Y482945D01*
X277513Y482968D01*
X277525Y482989D01*
X277571Y483132D01*
X277621Y483274D01*
X277624Y483298D01*
X277631Y483321D01*
X277643Y483470D01*
X277660Y483620D01*
X277657Y483644D01*
X277659Y483668D01*
X277637Y483817D01*
X277619Y483966D01*
X277610Y483994D01*
X277608Y484013D01*
X277590Y484057D01*
X277544Y484199D01*
X276351Y487079D01*
X276351Y496331D01*
X276337Y496457D01*
X276330Y496583D01*
X276317Y496629D01*
X276311Y496677D01*
X276269Y496796D01*
X276234Y496918D01*
X276210Y496960D01*
X276194Y497005D01*
X276125Y497112D01*
X276064Y497222D01*
X276024Y497268D01*
X276005Y497298D01*
X275970Y497332D01*
X275905Y497408D01*
X275827Y497470D01*
X275754Y497540D01*
X275690Y497579D01*
X275632Y497625D01*
X275541Y497668D01*
X275455Y497719D01*
X275384Y497742D01*
X275317Y497774D01*
X275219Y497795D01*
X275123Y497825D01*
X275049Y497831D01*
X274976Y497847D01*
X274876Y497845D01*
X274776Y497853D01*
X274702Y497842D01*
X274628Y497841D01*
X274531Y497817D01*
X274431Y497802D01*
X274362Y497774D01*
X274290Y497756D01*
X274200Y497710D01*
X274107Y497673D01*
X274046Y497631D01*
X273980Y497596D01*
X273903Y497531D01*
X273821Y497474D01*
X273771Y497419D01*
X273715Y497371D01*
X273686Y497331D01*
X264668Y497331D01*
X264642Y497328D01*
X264616Y497330D01*
X264469Y497308D01*
X264322Y497291D01*
X264297Y497283D01*
X264271Y497279D01*
X264164Y497236D01*
X264088Y497257D01*
X263947Y497302D01*
X263921Y497304D01*
X263896Y497312D01*
X263652Y497331D01*
X255015Y497331D01*
X255015Y502624D01*
X255240Y504046D01*
X255685Y505414D01*
X256339Y506697D01*
X257185Y507861D01*
X258203Y508879D01*
X259367Y509725D01*
X260650Y510379D01*
X261587Y510683D01*
X261620Y510698D01*
X261654Y510707D01*
X261778Y510771D01*
X261904Y510828D01*
X261932Y510850D01*
X261964Y510867D01*
X262070Y510957D01*
X262180Y511041D01*
X262202Y511069D01*
X262230Y511092D01*
X262312Y511204D01*
X262400Y511312D01*
X262415Y511344D01*
X262437Y511373D01*
X262492Y511500D01*
X262553Y511625D01*
X262561Y511660D01*
X262575Y511693D01*
X262599Y511829D01*
X262630Y511965D01*
X262630Y512000D01*
X262637Y512036D01*
X262629Y512174D01*
X262629Y512313D01*
X262620Y512348D01*
X262619Y512384D01*
X262580Y512517D01*
X262548Y512652D01*
X262532Y512684D01*
X262522Y512719D01*
X262454Y512840D01*
X262392Y512964D01*
X262369Y512992D01*
X262352Y513023D01*
X262193Y513209D01*
X257181Y518221D01*
X257082Y518300D01*
X256989Y518384D01*
X256946Y518408D01*
X256908Y518438D01*
X256794Y518492D01*
X256683Y518553D01*
X256637Y518566D01*
X256593Y518587D01*
X256470Y518613D01*
X256348Y518648D01*
X256287Y518653D01*
X256253Y518660D01*
X256205Y518659D01*
X256104Y518667D01*
X157465Y518667D01*
X157339Y518653D01*
X157213Y518646D01*
X157167Y518633D01*
X157119Y518627D01*
X157000Y518585D01*
X156878Y518550D01*
X156836Y518526D01*
X156791Y518510D01*
X156684Y518441D01*
X156574Y518380D01*
X156528Y518340D01*
X156498Y518321D01*
X156464Y518286D01*
X156388Y518221D01*
X146108Y507941D01*
X146046Y507863D01*
X145976Y507790D01*
X145937Y507726D01*
X145891Y507668D01*
X145848Y507577D01*
X145797Y507491D01*
X145774Y507420D01*
X145742Y507353D01*
X145721Y507255D01*
X145691Y507159D01*
X145685Y507085D01*
X145669Y507012D01*
X145671Y506912D01*
X145663Y506812D01*
X145674Y506738D01*
X145675Y506664D01*
X145699Y506567D01*
X145714Y506467D01*
X145742Y506398D01*
X145760Y506326D01*
X145806Y506236D01*
X145843Y506143D01*
X145885Y506082D01*
X145920Y506016D01*
X145985Y505939D01*
X146042Y505857D01*
X146097Y505807D01*
X146145Y505751D01*
X146153Y505745D01*
X146153Y496824D01*
X146156Y496798D01*
X146154Y496772D01*
X146176Y496625D01*
X146193Y496478D01*
X146201Y496453D01*
X146205Y496427D01*
X146260Y496289D01*
X146310Y496150D01*
X146324Y496128D01*
X146334Y496103D01*
X146419Y495982D01*
X146499Y495857D01*
X146518Y495839D01*
X146533Y495817D01*
X146643Y495718D01*
X146750Y495615D01*
X146772Y495601D01*
X146792Y495584D01*
X146922Y495512D01*
X147049Y495436D01*
X147074Y495428D01*
X147097Y495415D01*
X147240Y495375D01*
X147381Y495330D01*
X147407Y495328D01*
X147432Y495320D01*
X147676Y495301D01*
X149201Y495301D01*
X149201Y493776D01*
X149204Y493750D01*
X149202Y493724D01*
X149224Y493577D01*
X149241Y493430D01*
X149250Y493405D01*
X149253Y493379D01*
X149308Y493241D01*
X149358Y493102D01*
X149372Y493080D01*
X149382Y493055D01*
X149467Y492934D01*
X149547Y492809D01*
X149566Y492791D01*
X149581Y492769D01*
X149691Y492670D01*
X149798Y492567D01*
X149820Y492553D01*
X149840Y492536D01*
X149970Y492464D01*
X150097Y492388D01*
X150122Y492380D01*
X150145Y492367D01*
X150288Y492327D01*
X150429Y492282D01*
X150455Y492280D01*
X150480Y492272D01*
X150724Y492253D01*
X158241Y492253D01*
X158241Y487465D01*
X158068Y486819D01*
X157733Y486240D01*
X157260Y485767D01*
X156925Y485574D01*
X156884Y485543D01*
X156839Y485520D01*
X156744Y485440D01*
X156645Y485366D01*
X156612Y485327D01*
X156573Y485294D01*
X156500Y485194D01*
X156420Y485100D01*
X156396Y485055D01*
X156366Y485014D01*
X156317Y484900D01*
X156261Y484790D01*
X156248Y484740D01*
X156228Y484694D01*
X156206Y484572D01*
X156176Y484452D01*
X156175Y484401D01*
X156166Y484351D01*
X156173Y484227D01*
X156171Y484103D01*
X156182Y484053D01*
X156184Y484003D01*
X156219Y483884D01*
X156245Y483763D01*
X156267Y483717D01*
X156281Y483668D01*
X156341Y483560D01*
X156394Y483448D01*
X156426Y483408D01*
X156451Y483363D01*
X156610Y483177D01*
X175016Y464771D01*
X175115Y464692D01*
X175209Y464608D01*
X175251Y464584D01*
X175289Y464554D01*
X175403Y464500D01*
X175514Y464439D01*
X175560Y464426D01*
X175604Y464405D01*
X175727Y464379D01*
X175849Y464344D01*
X175910Y464339D01*
X175945Y464332D01*
X175993Y464333D01*
X176093Y464325D01*
X180949Y464325D01*
X181000Y464331D01*
X181051Y464328D01*
X181172Y464350D01*
X181295Y464365D01*
X181343Y464382D01*
X181394Y464391D01*
X181507Y464440D01*
X181623Y464482D01*
X181666Y464510D01*
X181713Y464530D01*
X181812Y464604D01*
X181916Y464671D01*
X181952Y464708D01*
X181993Y464738D01*
X182072Y464833D01*
X182158Y464922D01*
X182185Y464966D01*
X182217Y465005D01*
X182274Y465115D01*
X182337Y465221D01*
X182353Y465269D01*
X182376Y465315D01*
X182406Y465435D01*
X182443Y465553D01*
X182448Y465604D01*
X182460Y465653D01*
X182462Y465777D01*
X182471Y465900D01*
X182464Y465951D01*
X182465Y466002D01*
X182420Y466242D01*
X182420Y466245D01*
X182359Y466470D01*
X182359Y472657D01*
X186377Y472657D01*
X186377Y464264D01*
X185167Y464264D01*
X185067Y464253D01*
X184967Y464251D01*
X184895Y464233D01*
X184821Y464224D01*
X184726Y464191D01*
X184629Y464166D01*
X184563Y464132D01*
X184493Y464107D01*
X184408Y464052D01*
X184319Y464006D01*
X184262Y463958D01*
X184200Y463918D01*
X184130Y463846D01*
X184054Y463781D01*
X184009Y463721D01*
X183958Y463667D01*
X183906Y463581D01*
X183847Y463500D01*
X183817Y463432D01*
X183779Y463368D01*
X183748Y463272D01*
X183709Y463180D01*
X183695Y463107D01*
X183673Y463036D01*
X183665Y462936D01*
X183647Y462837D01*
X183651Y462763D01*
X183645Y462689D01*
X183660Y462589D01*
X183665Y462489D01*
X183685Y462418D01*
X183696Y462344D01*
X183733Y462251D01*
X183761Y462154D01*
X183798Y462089D01*
X183825Y462020D01*
X183882Y461938D01*
X183931Y461850D01*
X183997Y461774D01*
X184024Y461734D01*
X184050Y461710D01*
X184090Y461664D01*
X185478Y460276D01*
X188008Y457746D01*
X188008Y429854D01*
X183831Y425677D01*
X183744Y425664D01*
X183597Y425647D01*
X183572Y425639D01*
X183546Y425635D01*
X183408Y425580D01*
X183269Y425530D01*
X183247Y425516D01*
X183222Y425506D01*
X183101Y425421D01*
X182976Y425341D01*
X182958Y425322D01*
X182936Y425307D01*
X182837Y425197D01*
X182734Y425090D01*
X182720Y425068D01*
X182703Y425048D01*
X182631Y424918D01*
X182555Y424791D01*
X182547Y424766D01*
X182534Y424743D01*
X182494Y424600D01*
X182449Y424459D01*
X182447Y424433D01*
X182439Y424408D01*
X182420Y424164D01*
X182420Y399843D01*
X182423Y399817D01*
X182421Y399791D01*
X182443Y399644D01*
X182460Y399497D01*
X182468Y399472D01*
X182472Y399446D01*
X182527Y399308D01*
X182577Y399169D01*
X182591Y399147D01*
X182601Y399122D01*
X182663Y399033D01*
X182606Y399064D01*
X182479Y399140D01*
X182454Y399148D01*
X182431Y399161D01*
X182288Y399201D01*
X182147Y399246D01*
X182121Y399248D01*
X182096Y399256D01*
X181852Y399275D01*
X165513Y399275D01*
X164620Y400168D01*
X164620Y417597D01*
X164609Y417697D01*
X164607Y417797D01*
X164589Y417869D01*
X164580Y417943D01*
X164547Y418037D01*
X164522Y418135D01*
X164488Y418201D01*
X164463Y418271D01*
X164408Y418355D01*
X164362Y418445D01*
X164314Y418501D01*
X164274Y418564D01*
X164202Y418634D01*
X164137Y418710D01*
X164077Y418754D01*
X164023Y418806D01*
X163937Y418858D01*
X163856Y418917D01*
X163788Y418947D01*
X163724Y418985D01*
X163628Y419016D01*
X163536Y419055D01*
X163463Y419068D01*
X163392Y419091D01*
X163292Y419099D01*
X163193Y419117D01*
X163119Y419113D01*
X163045Y419119D01*
X162945Y419104D01*
X162845Y419099D01*
X162774Y419078D01*
X162700Y419067D01*
X162607Y419030D01*
X162510Y419003D01*
X162445Y418966D01*
X162376Y418939D01*
X162294Y418881D01*
X162206Y418832D01*
X162130Y418767D01*
X162090Y418740D01*
X162066Y418713D01*
X162020Y418674D01*
X156403Y413057D01*
X156324Y412958D01*
X156240Y412864D01*
X156216Y412822D01*
X156186Y412784D01*
X156132Y412670D01*
X156071Y412559D01*
X156058Y412512D01*
X156037Y412469D01*
X156011Y412345D01*
X155976Y412224D01*
X155971Y412163D01*
X155964Y412128D01*
X155965Y412080D01*
X155957Y411980D01*
X155957Y400048D01*
X155960Y400022D01*
X155958Y399996D01*
X155980Y399849D01*
X155997Y399702D01*
X156005Y399677D01*
X156009Y399651D01*
X156064Y399513D01*
X156114Y399374D01*
X156128Y399352D01*
X156138Y399327D01*
X156223Y399206D01*
X156303Y399081D01*
X156322Y399063D01*
X156337Y399041D01*
X156447Y398942D01*
X156554Y398839D01*
X156576Y398825D01*
X156596Y398808D01*
X156726Y398736D01*
X156853Y398660D01*
X156878Y398652D01*
X156901Y398639D01*
X157044Y398599D01*
X157185Y398554D01*
X157211Y398552D01*
X157236Y398544D01*
X157480Y398525D01*
X160532Y398525D01*
X161425Y397632D01*
X161425Y383368D01*
X160727Y382671D01*
X160695Y382630D01*
X160657Y382596D01*
X160587Y382495D01*
X160510Y382398D01*
X160488Y382351D01*
X160459Y382309D01*
X160414Y382194D01*
X160361Y382082D01*
X160351Y382033D01*
X160332Y381985D01*
X160314Y381863D01*
X160288Y381742D01*
X160289Y381691D01*
X160281Y381640D01*
X160292Y381517D01*
X160294Y381393D01*
X160306Y381344D01*
X160311Y381293D01*
X160349Y381175D01*
X160379Y381055D01*
X160402Y381010D01*
X160418Y380961D01*
X160482Y380855D01*
X160539Y380746D01*
X160572Y380707D01*
X160598Y380663D01*
X160684Y380574D01*
X160764Y380480D01*
X160805Y380450D01*
X160841Y380413D01*
X161042Y380274D01*
X161460Y380033D01*
X161933Y379560D01*
X162268Y378981D01*
X162275Y378953D01*
X162441Y378335D01*
X162441Y374547D01*
X153924Y374547D01*
X153898Y374544D01*
X153872Y374546D01*
X153725Y374524D01*
X153578Y374507D01*
X153553Y374498D01*
X153527Y374495D01*
X153389Y374440D01*
X153250Y374390D01*
X153228Y374376D01*
X153203Y374366D01*
X153082Y374281D01*
X152957Y374201D01*
X152939Y374182D01*
X152917Y374167D01*
X152818Y374057D01*
X152715Y373950D01*
X152701Y373928D01*
X152684Y373908D01*
X152612Y373778D01*
X152536Y373651D01*
X152528Y373626D01*
X152515Y373603D01*
X152475Y373460D01*
X152430Y373319D01*
X152428Y373293D01*
X152420Y373268D01*
X152401Y373024D01*
X152401Y371499D01*
X152399Y371499D01*
X152399Y373024D01*
X152396Y373050D01*
X152398Y373076D01*
X152376Y373223D01*
X152359Y373370D01*
X152350Y373395D01*
X152347Y373421D01*
X152292Y373559D01*
X152242Y373698D01*
X152228Y373720D01*
X152218Y373745D01*
X152133Y373866D01*
X152053Y373991D01*
X152034Y374009D01*
X152019Y374031D01*
X151909Y374130D01*
X151802Y374233D01*
X151780Y374247D01*
X151760Y374264D01*
X151630Y374336D01*
X151503Y374412D01*
X151478Y374420D01*
X151455Y374433D01*
X151312Y374473D01*
X151171Y374518D01*
X151145Y374520D01*
X151120Y374528D01*
X150876Y374547D01*
X142359Y374547D01*
X142359Y378335D01*
X142532Y378981D01*
X142867Y379560D01*
X143340Y380033D01*
X143758Y380274D01*
X143799Y380305D01*
X143844Y380328D01*
X143938Y380408D01*
X144038Y380482D01*
X144071Y380521D01*
X144109Y380554D01*
X144183Y380653D01*
X144263Y380748D01*
X144286Y380793D01*
X144317Y380834D01*
X144366Y380948D01*
X144422Y381058D01*
X144434Y381107D01*
X144455Y381154D01*
X144476Y381276D01*
X144506Y381396D01*
X144507Y381447D01*
X144516Y381497D01*
X144510Y381621D01*
X144512Y381744D01*
X144501Y381794D01*
X144498Y381845D01*
X144464Y381964D01*
X144438Y382085D01*
X144416Y382131D01*
X144402Y382180D01*
X144341Y382288D01*
X144288Y382400D01*
X144257Y382440D01*
X144232Y382484D01*
X144073Y382671D01*
X143375Y383368D01*
X143375Y398168D01*
X143364Y398268D01*
X143362Y398368D01*
X143344Y398440D01*
X143335Y398514D01*
X143302Y398609D01*
X143277Y398706D01*
X143243Y398772D01*
X143218Y398842D01*
X143163Y398927D01*
X143117Y399016D01*
X143069Y399073D01*
X143029Y399135D01*
X142957Y399205D01*
X142892Y399281D01*
X142832Y399325D01*
X142778Y399377D01*
X142692Y399429D01*
X142611Y399488D01*
X142543Y399518D01*
X142479Y399556D01*
X142383Y399587D01*
X142291Y399626D01*
X142218Y399640D01*
X142147Y399662D01*
X142047Y399670D01*
X141948Y399688D01*
X141874Y399684D01*
X141800Y399690D01*
X141700Y399675D01*
X141600Y399670D01*
X141529Y399650D01*
X141455Y399639D01*
X141362Y399601D01*
X141265Y399574D01*
X141200Y399537D01*
X141131Y399510D01*
X141049Y399453D01*
X140961Y399403D01*
X140885Y399338D01*
X140845Y399311D01*
X140821Y399284D01*
X140775Y399245D01*
X136471Y394941D01*
X136392Y394842D01*
X136308Y394748D01*
X136284Y394706D01*
X136254Y394668D01*
X136200Y394554D01*
X136139Y394443D01*
X136126Y394396D01*
X136105Y394353D01*
X136079Y394229D01*
X136044Y394108D01*
X136039Y394047D01*
X136032Y394012D01*
X136033Y393964D01*
X136025Y393864D01*
X136025Y383368D01*
X135327Y382671D01*
X135295Y382630D01*
X135257Y382596D01*
X135187Y382495D01*
X135110Y382398D01*
X135088Y382351D01*
X135059Y382309D01*
X135014Y382194D01*
X134961Y382082D01*
X134951Y382033D01*
X134932Y381985D01*
X134914Y381863D01*
X134888Y381742D01*
X134889Y381691D01*
X134881Y381640D01*
X134892Y381517D01*
X134894Y381393D01*
X134906Y381344D01*
X134911Y381293D01*
X134949Y381175D01*
X134979Y381055D01*
X135002Y381010D01*
X135018Y380961D01*
X135082Y380855D01*
X135139Y380746D01*
X135172Y380707D01*
X135198Y380663D01*
X135284Y380574D01*
X135364Y380480D01*
X135405Y380450D01*
X135441Y380413D01*
X135642Y380274D01*
X136060Y380033D01*
X136533Y379560D01*
X136868Y378981D01*
X136875Y378953D01*
X137041Y378335D01*
X137041Y374547D01*
X128524Y374547D01*
X128498Y374544D01*
X128472Y374546D01*
X128325Y374524D01*
X128178Y374507D01*
X128153Y374498D01*
X128127Y374495D01*
X127989Y374440D01*
X127850Y374390D01*
X127828Y374376D01*
X127803Y374366D01*
X127682Y374281D01*
X127557Y374201D01*
X127539Y374182D01*
X127517Y374167D01*
X127418Y374057D01*
X127315Y373950D01*
X127301Y373928D01*
X127284Y373908D01*
X127212Y373778D01*
X127136Y373651D01*
X127128Y373626D01*
X127115Y373603D01*
X127075Y373460D01*
X127030Y373319D01*
X127028Y373293D01*
X127020Y373268D01*
X127001Y373024D01*
X127001Y371499D01*
X126999Y371499D01*
X126999Y373024D01*
X126996Y373050D01*
X126998Y373076D01*
X126976Y373223D01*
X126959Y373370D01*
X126950Y373395D01*
X126947Y373421D01*
X126892Y373559D01*
X126842Y373698D01*
X126828Y373720D01*
X126818Y373745D01*
X126733Y373866D01*
X126653Y373991D01*
X126634Y374009D01*
X126619Y374031D01*
X126509Y374130D01*
X126402Y374233D01*
X126380Y374247D01*
X126360Y374264D01*
X126230Y374336D01*
X126103Y374412D01*
X126078Y374420D01*
X126055Y374433D01*
X125912Y374473D01*
X125771Y374518D01*
X125745Y374520D01*
X125720Y374528D01*
X125476Y374547D01*
X116959Y374547D01*
X116959Y378335D01*
X117132Y378981D01*
X117467Y379560D01*
X117940Y380033D01*
X118358Y380274D01*
X118399Y380305D01*
X118444Y380328D01*
X118538Y380408D01*
X118638Y380482D01*
X118671Y380521D01*
X118709Y380554D01*
X118783Y380653D01*
X118863Y380748D01*
X118886Y380793D01*
X118917Y380834D01*
X118966Y380948D01*
X119022Y381058D01*
X119034Y381107D01*
X119055Y381154D01*
X119076Y381276D01*
X119106Y381396D01*
X119107Y381447D01*
X119116Y381497D01*
X119110Y381621D01*
X119112Y381744D01*
X119101Y381794D01*
X119098Y381845D01*
X119064Y381964D01*
X119038Y382085D01*
X119016Y382131D01*
X119002Y382180D01*
X118941Y382288D01*
X118888Y382400D01*
X118857Y382440D01*
X118832Y382484D01*
X118673Y382671D01*
X117975Y383368D01*
X117975Y384404D01*
X117972Y384430D01*
X117974Y384456D01*
X117952Y384603D01*
X117935Y384750D01*
X117927Y384775D01*
X117923Y384801D01*
X117868Y384939D01*
X117818Y385078D01*
X117804Y385100D01*
X117794Y385125D01*
X117709Y385246D01*
X117629Y385371D01*
X117610Y385389D01*
X117595Y385411D01*
X117485Y385510D01*
X117378Y385613D01*
X117356Y385627D01*
X117336Y385644D01*
X117206Y385716D01*
X117079Y385792D01*
X117054Y385800D01*
X117031Y385813D01*
X116888Y385853D01*
X116747Y385898D01*
X116721Y385900D01*
X116696Y385908D01*
X116452Y385927D01*
X96785Y385927D01*
X95104Y386623D01*
X83732Y397995D01*
X82231Y399496D01*
X81535Y401177D01*
X81535Y497983D01*
X82231Y499664D01*
X83732Y501165D01*
X115891Y533323D01*
X115953Y533402D01*
X116023Y533474D01*
X116061Y533538D01*
X116107Y533596D01*
X116150Y533687D01*
X116201Y533773D01*
X116224Y533844D01*
X116256Y533911D01*
X116277Y534009D01*
X116308Y534105D01*
X116314Y534179D01*
X116329Y534252D01*
X116328Y534352D01*
X116336Y534452D01*
X116325Y534526D01*
X116323Y534600D01*
X116299Y534698D01*
X116284Y534797D01*
X116257Y534866D01*
X116238Y534938D01*
X116193Y535028D01*
X116156Y535121D01*
X116113Y535182D01*
X116079Y535248D01*
X116014Y535325D01*
X115957Y535407D01*
X115901Y535457D01*
X115853Y535514D01*
X115772Y535573D01*
X115698Y535640D01*
X115633Y535676D01*
X115573Y535721D01*
X115481Y535761D01*
X115393Y535809D01*
X115321Y535829D01*
X115253Y535859D01*
X115154Y535877D01*
X115058Y535904D01*
X114957Y535912D01*
X114910Y535920D01*
X114874Y535919D01*
X114814Y535924D01*
X49784Y535937D01*
X49758Y535934D01*
X49732Y535936D01*
X49585Y535914D01*
X49438Y535897D01*
X49413Y535888D01*
X49387Y535884D01*
X49249Y535829D01*
X49110Y535780D01*
X49088Y535765D01*
X49063Y535756D01*
X48942Y535671D01*
X48817Y535591D01*
X48799Y535572D01*
X48777Y535557D01*
X48678Y535447D01*
X48575Y535340D01*
X48561Y535317D01*
X48544Y535298D01*
X48472Y535168D01*
X48396Y535041D01*
X48388Y535016D01*
X48375Y534993D01*
X48335Y534850D01*
X48290Y534709D01*
X48288Y534683D01*
X48280Y534657D01*
X48261Y534414D01*
X48261Y332139D01*
X48275Y332018D01*
X48280Y331897D01*
X48295Y331845D01*
X48301Y331792D01*
X48342Y331678D01*
X48374Y331561D01*
X48400Y331515D01*
X48418Y331464D01*
X48484Y331362D01*
X48542Y331256D01*
X48578Y331216D01*
X48607Y331172D01*
X48695Y331087D01*
X48776Y330997D01*
X48819Y330967D01*
X48858Y330929D01*
X48962Y330867D01*
X49061Y330798D01*
X49111Y330778D01*
X49157Y330751D01*
X49272Y330714D01*
X49385Y330669D01*
X49438Y330661D01*
X49489Y330644D01*
X49610Y330635D01*
X49730Y330616D01*
X49783Y330621D01*
X49836Y330616D01*
X49956Y330634D01*
X50077Y330644D01*
X50128Y330660D01*
X50181Y330668D01*
X50294Y330713D01*
X50409Y330750D01*
X50455Y330777D01*
X50505Y330797D01*
X50604Y330866D01*
X50709Y330928D01*
X50747Y330965D01*
X50791Y330996D01*
X50872Y331086D01*
X50960Y331170D01*
X50989Y331215D01*
X51024Y331254D01*
X51083Y331361D01*
X51149Y331463D01*
X51174Y331526D01*
X51193Y331559D01*
X51205Y331604D01*
X51240Y331690D01*
X52299Y335126D01*
X59121Y345131D01*
X68588Y352681D01*
X79860Y357105D01*
X91936Y358010D01*
X103741Y355315D01*
X114228Y349261D01*
X122465Y340384D01*
X127719Y329474D01*
X129524Y317500D01*
X127719Y305526D01*
X122465Y294616D01*
X114228Y285739D01*
X103741Y279685D01*
X91936Y276990D01*
X79860Y277895D01*
X68588Y282319D01*
X59121Y289869D01*
X52299Y299874D01*
X51240Y303310D01*
X51191Y303421D01*
X51150Y303536D01*
X51121Y303580D01*
X51099Y303629D01*
X51027Y303727D01*
X50961Y303828D01*
X50922Y303865D01*
X50890Y303908D01*
X50797Y303986D01*
X50710Y304071D01*
X50664Y304098D01*
X50623Y304132D01*
X50515Y304187D01*
X50411Y304249D01*
X50360Y304266D01*
X50313Y304290D01*
X50195Y304319D01*
X50079Y304356D01*
X50026Y304360D01*
X49974Y304373D01*
X49853Y304374D01*
X49732Y304384D01*
X49679Y304376D01*
X49626Y304376D01*
X49507Y304350D01*
X49387Y304332D01*
X49338Y304312D01*
X49285Y304301D01*
X49176Y304248D01*
X49063Y304203D01*
X49019Y304173D01*
X48971Y304150D01*
X48877Y304073D01*
X48777Y304004D01*
X48741Y303965D01*
X48700Y303931D01*
X48625Y303836D01*
X48544Y303746D01*
X48518Y303699D01*
X48485Y303657D01*
X48434Y303547D01*
X48375Y303440D01*
X48361Y303389D01*
X48338Y303341D01*
X48313Y303222D01*
X48280Y303105D01*
X48275Y303037D01*
X48267Y302999D01*
X48268Y302953D01*
X48261Y302861D01*
X48261Y123444D01*
X48264Y123418D01*
X48262Y123392D01*
X48284Y123245D01*
X48301Y123098D01*
X48309Y123073D01*
X48313Y123047D01*
X48368Y122909D01*
X48418Y122770D01*
X48432Y122748D01*
X48442Y122723D01*
X48527Y122602D01*
X48607Y122477D01*
X48626Y122459D01*
X48641Y122437D01*
X48751Y122338D01*
X48858Y122235D01*
X48880Y122221D01*
X48900Y122204D01*
X49030Y122132D01*
X49157Y122056D01*
X49182Y122048D01*
X49205Y122035D01*
X49348Y121995D01*
X49489Y121950D01*
X49515Y121948D01*
X49540Y121940D01*
X49784Y121921D01*
X513336Y121921D01*
X513362Y121924D01*
G37*
%LPC*%
G36*
X271568Y134575D02*
X271568Y134575D01*
X270675Y135468D01*
X270675Y194732D01*
X271242Y195298D01*
X271258Y195318D01*
X271278Y195335D01*
X271366Y195454D01*
X271458Y195571D01*
X271469Y195595D01*
X271485Y195616D01*
X271544Y195752D01*
X271607Y195886D01*
X271613Y195912D01*
X271623Y195936D01*
X271649Y196082D01*
X271681Y196227D01*
X271680Y196253D01*
X271685Y196279D01*
X271677Y196427D01*
X271675Y196575D01*
X271668Y196601D01*
X271667Y196627D01*
X271626Y196769D01*
X271590Y196913D01*
X271578Y196936D01*
X271570Y196962D01*
X271498Y197091D01*
X271430Y197223D01*
X271413Y197243D01*
X271400Y197266D01*
X271242Y197452D01*
X261874Y206820D01*
X261023Y208874D01*
X261023Y256845D01*
X261009Y256970D01*
X261002Y257097D01*
X260989Y257143D01*
X260983Y257191D01*
X260941Y257310D01*
X260906Y257431D01*
X260882Y257474D01*
X260866Y257519D01*
X260797Y257625D01*
X260736Y257736D01*
X260696Y257782D01*
X260677Y257812D01*
X260642Y257845D01*
X260577Y257922D01*
X251541Y266958D01*
X251463Y267020D01*
X251390Y267090D01*
X251326Y267128D01*
X251268Y267175D01*
X251177Y267217D01*
X251091Y267269D01*
X251020Y267292D01*
X250953Y267323D01*
X250855Y267345D01*
X250759Y267375D01*
X250685Y267381D01*
X250612Y267397D01*
X250512Y267395D01*
X250412Y267403D01*
X250338Y267392D01*
X250264Y267391D01*
X250167Y267366D01*
X250067Y267351D01*
X249998Y267324D01*
X249926Y267306D01*
X249836Y267260D01*
X249743Y267223D01*
X249682Y267180D01*
X249618Y267147D01*
X234447Y267147D01*
X234447Y274641D01*
X240181Y274641D01*
X240281Y274652D01*
X240381Y274654D01*
X240453Y274672D01*
X240527Y274681D01*
X240621Y274714D01*
X240719Y274739D01*
X240785Y274773D01*
X240855Y274798D01*
X240939Y274853D01*
X241029Y274899D01*
X241085Y274947D01*
X241148Y274987D01*
X241218Y275059D01*
X241294Y275124D01*
X241338Y275184D01*
X241390Y275238D01*
X241442Y275324D01*
X241501Y275405D01*
X241531Y275473D01*
X241569Y275537D01*
X241600Y275632D01*
X241639Y275725D01*
X241652Y275798D01*
X241675Y275869D01*
X241683Y275969D01*
X241701Y276068D01*
X241697Y276142D01*
X241703Y276216D01*
X241688Y276315D01*
X241683Y276416D01*
X241662Y276487D01*
X241651Y276561D01*
X241614Y276654D01*
X241587Y276751D01*
X241550Y276816D01*
X241523Y276885D01*
X241465Y276967D01*
X241416Y277055D01*
X241351Y277131D01*
X241324Y277171D01*
X241297Y277195D01*
X241258Y277241D01*
X226402Y292097D01*
X226319Y292297D01*
X226246Y292428D01*
X226177Y292562D01*
X226162Y292580D01*
X226150Y292602D01*
X226049Y292713D01*
X225951Y292827D01*
X225932Y292842D01*
X225916Y292860D01*
X225792Y292945D01*
X225671Y293035D01*
X225649Y293044D01*
X225629Y293058D01*
X225489Y293113D01*
X225351Y293173D01*
X225327Y293177D01*
X225305Y293186D01*
X225156Y293208D01*
X225008Y293234D01*
X224984Y293233D01*
X224960Y293237D01*
X224810Y293224D01*
X224660Y293216D01*
X224637Y293210D01*
X224613Y293208D01*
X224470Y293161D01*
X224325Y293120D01*
X224304Y293108D01*
X224281Y293101D01*
X224152Y293023D01*
X224021Y292950D01*
X223999Y292931D01*
X223983Y292921D01*
X223949Y292888D01*
X223835Y292791D01*
X218406Y287362D01*
X216352Y286511D01*
X209548Y286511D01*
X209522Y286508D01*
X209496Y286510D01*
X209349Y286488D01*
X209202Y286471D01*
X209177Y286463D01*
X209151Y286459D01*
X209013Y286404D01*
X208874Y286354D01*
X208852Y286340D01*
X208827Y286330D01*
X208706Y286245D01*
X208581Y286165D01*
X208563Y286146D01*
X208541Y286131D01*
X208442Y286021D01*
X208339Y285914D01*
X208325Y285892D01*
X208308Y285872D01*
X208236Y285742D01*
X208160Y285615D01*
X208152Y285590D01*
X208139Y285567D01*
X208099Y285424D01*
X208054Y285283D01*
X208052Y285257D01*
X208044Y285232D01*
X208025Y284988D01*
X208025Y283968D01*
X207132Y283075D01*
X192868Y283075D01*
X192171Y283773D01*
X192130Y283805D01*
X192096Y283843D01*
X191995Y283913D01*
X191898Y283990D01*
X191851Y284012D01*
X191809Y284041D01*
X191694Y284086D01*
X191582Y284139D01*
X191533Y284149D01*
X191485Y284168D01*
X191363Y284186D01*
X191242Y284212D01*
X191191Y284211D01*
X191140Y284219D01*
X191017Y284208D01*
X190893Y284206D01*
X190844Y284194D01*
X190793Y284189D01*
X190675Y284151D01*
X190555Y284121D01*
X190510Y284098D01*
X190461Y284082D01*
X190355Y284018D01*
X190246Y283961D01*
X190207Y283928D01*
X190163Y283902D01*
X190074Y283816D01*
X189980Y283736D01*
X189950Y283695D01*
X189913Y283659D01*
X189774Y283458D01*
X189533Y283040D01*
X189060Y282567D01*
X188481Y282232D01*
X187835Y282059D01*
X184047Y282059D01*
X184047Y290576D01*
X184044Y290602D01*
X184046Y290628D01*
X184024Y290775D01*
X184007Y290922D01*
X183998Y290947D01*
X183995Y290973D01*
X183940Y291111D01*
X183890Y291250D01*
X183876Y291272D01*
X183866Y291297D01*
X183781Y291418D01*
X183701Y291543D01*
X183682Y291561D01*
X183667Y291583D01*
X183557Y291682D01*
X183450Y291785D01*
X183428Y291799D01*
X183408Y291816D01*
X183278Y291888D01*
X183151Y291964D01*
X183126Y291972D01*
X183103Y291985D01*
X182960Y292025D01*
X182819Y292070D01*
X182793Y292072D01*
X182768Y292080D01*
X182524Y292099D01*
X180999Y292099D01*
X180999Y292101D01*
X182524Y292101D01*
X182550Y292104D01*
X182576Y292102D01*
X182723Y292124D01*
X182870Y292141D01*
X182895Y292150D01*
X182921Y292153D01*
X183059Y292208D01*
X183198Y292258D01*
X183220Y292272D01*
X183245Y292282D01*
X183366Y292367D01*
X183491Y292447D01*
X183509Y292466D01*
X183531Y292481D01*
X183630Y292591D01*
X183733Y292698D01*
X183747Y292720D01*
X183764Y292740D01*
X183836Y292870D01*
X183912Y292997D01*
X183920Y293022D01*
X183933Y293045D01*
X183973Y293188D01*
X184018Y293329D01*
X184020Y293355D01*
X184028Y293380D01*
X184047Y293624D01*
X184047Y302141D01*
X187835Y302141D01*
X188481Y301968D01*
X189060Y301633D01*
X189533Y301160D01*
X189774Y300742D01*
X189805Y300701D01*
X189828Y300656D01*
X189908Y300562D01*
X189982Y300462D01*
X190021Y300429D01*
X190054Y300391D01*
X190153Y300317D01*
X190248Y300237D01*
X190293Y300214D01*
X190334Y300183D01*
X190448Y300134D01*
X190558Y300078D01*
X190607Y300066D01*
X190654Y300045D01*
X190776Y300024D01*
X190896Y299994D01*
X190947Y299993D01*
X190997Y299984D01*
X191121Y299990D01*
X191244Y299988D01*
X191294Y299999D01*
X191345Y300002D01*
X191464Y300036D01*
X191585Y300062D01*
X191631Y300084D01*
X191680Y300098D01*
X191788Y300159D01*
X191900Y300212D01*
X191940Y300243D01*
X191984Y300268D01*
X192171Y300427D01*
X192868Y301125D01*
X207157Y301125D01*
X207183Y301106D01*
X207299Y301014D01*
X207323Y301002D01*
X207344Y300987D01*
X207480Y300928D01*
X207614Y300865D01*
X207640Y300859D01*
X207664Y300849D01*
X207810Y300822D01*
X207955Y300791D01*
X207981Y300792D01*
X208007Y300787D01*
X208155Y300795D01*
X208303Y300797D01*
X208329Y300804D01*
X208355Y300805D01*
X208497Y300846D01*
X208641Y300882D01*
X208665Y300894D01*
X208690Y300902D01*
X208819Y300974D01*
X208951Y301042D01*
X208971Y301059D01*
X208994Y301072D01*
X209180Y301230D01*
X212485Y304535D01*
X212547Y304613D01*
X212617Y304686D01*
X212655Y304750D01*
X212702Y304808D01*
X212744Y304899D01*
X212796Y304985D01*
X212819Y305056D01*
X212850Y305123D01*
X212872Y305221D01*
X212902Y305317D01*
X212908Y305391D01*
X212924Y305464D01*
X212922Y305564D01*
X212930Y305664D01*
X212919Y305738D01*
X212918Y305812D01*
X212893Y305909D01*
X212879Y306009D01*
X212851Y306078D01*
X212833Y306150D01*
X212787Y306239D01*
X212750Y306333D01*
X212707Y306394D01*
X212673Y306460D01*
X212608Y306536D01*
X212551Y306619D01*
X212496Y306669D01*
X212447Y306725D01*
X212367Y306785D01*
X212292Y306852D01*
X212227Y306888D01*
X212167Y306933D01*
X212075Y306972D01*
X211987Y307021D01*
X211915Y307041D01*
X211847Y307071D01*
X211748Y307088D01*
X211652Y307116D01*
X211552Y307124D01*
X211504Y307132D01*
X211468Y307130D01*
X211408Y307135D01*
X199408Y307135D01*
X198515Y308028D01*
X198515Y347292D01*
X199337Y348113D01*
X199353Y348133D01*
X199373Y348150D01*
X199461Y348270D01*
X199553Y348386D01*
X199564Y348410D01*
X199580Y348431D01*
X199639Y348567D01*
X199702Y348701D01*
X199708Y348727D01*
X199718Y348751D01*
X199744Y348897D01*
X199776Y349042D01*
X199775Y349068D01*
X199780Y349094D01*
X199772Y349242D01*
X199770Y349390D01*
X199763Y349416D01*
X199762Y349442D01*
X199721Y349584D01*
X199685Y349728D01*
X199673Y349752D01*
X199665Y349777D01*
X199593Y349906D01*
X199525Y350038D01*
X199508Y350058D01*
X199495Y350081D01*
X199337Y350267D01*
X199197Y350407D01*
X199177Y350423D01*
X199160Y350443D01*
X199040Y350531D01*
X198924Y350623D01*
X198900Y350634D01*
X198879Y350650D01*
X198743Y350709D01*
X198609Y350772D01*
X198583Y350778D01*
X198559Y350788D01*
X198413Y350814D01*
X198268Y350846D01*
X198242Y350845D01*
X198216Y350850D01*
X198068Y350842D01*
X197920Y350840D01*
X197894Y350833D01*
X197868Y350832D01*
X197726Y350791D01*
X197582Y350755D01*
X197559Y350743D01*
X197533Y350735D01*
X197404Y350663D01*
X197272Y350595D01*
X197252Y350578D01*
X197229Y350565D01*
X197043Y350407D01*
X195752Y349115D01*
X189998Y349115D01*
X189947Y349109D01*
X189896Y349112D01*
X189774Y349090D01*
X189651Y349075D01*
X189603Y349058D01*
X189553Y349049D01*
X189440Y349000D01*
X189323Y348958D01*
X189280Y348930D01*
X189234Y348910D01*
X189134Y348836D01*
X189030Y348769D01*
X188995Y348732D01*
X188954Y348702D01*
X188874Y348607D01*
X188788Y348518D01*
X188762Y348474D01*
X188729Y348435D01*
X188673Y348325D01*
X188609Y348219D01*
X188594Y348171D01*
X188571Y348125D01*
X188541Y348005D01*
X188503Y347887D01*
X188499Y347836D01*
X188487Y347787D01*
X188485Y347663D01*
X188475Y347540D01*
X188483Y347489D01*
X188482Y347438D01*
X188526Y347198D01*
X188581Y346994D01*
X188581Y330707D01*
X182587Y330707D01*
X182587Y347592D01*
X182584Y347618D01*
X182586Y347644D01*
X182564Y347791D01*
X182547Y347938D01*
X182538Y347963D01*
X182535Y347989D01*
X182480Y348127D01*
X182430Y348266D01*
X182416Y348288D01*
X182406Y348313D01*
X182321Y348434D01*
X182241Y348559D01*
X182222Y348577D01*
X182207Y348599D01*
X182097Y348698D01*
X181990Y348801D01*
X181968Y348815D01*
X181948Y348832D01*
X181818Y348904D01*
X181691Y348980D01*
X181666Y348988D01*
X181643Y349001D01*
X181587Y349017D01*
X180595Y350008D01*
X180595Y366272D01*
X181488Y367165D01*
X181804Y367165D01*
X181830Y367168D01*
X181856Y367166D01*
X182003Y367188D01*
X182150Y367205D01*
X182175Y367213D01*
X182201Y367217D01*
X182339Y367272D01*
X182478Y367322D01*
X182500Y367336D01*
X182525Y367346D01*
X182646Y367431D01*
X182771Y367511D01*
X182789Y367530D01*
X182811Y367545D01*
X182910Y367655D01*
X183013Y367762D01*
X183027Y367784D01*
X183044Y367804D01*
X183116Y367934D01*
X183192Y368061D01*
X183200Y368086D01*
X183213Y368109D01*
X183253Y368252D01*
X183298Y368393D01*
X183300Y368419D01*
X183308Y368444D01*
X183327Y368688D01*
X183327Y390404D01*
X183355Y390501D01*
X183355Y390503D01*
X183356Y390505D01*
X183375Y390748D01*
X183375Y397752D01*
X183372Y397778D01*
X183374Y397804D01*
X183352Y397951D01*
X183335Y398098D01*
X183327Y398123D01*
X183323Y398149D01*
X183268Y398287D01*
X183218Y398426D01*
X183204Y398448D01*
X183194Y398473D01*
X183132Y398562D01*
X183189Y398531D01*
X183316Y398455D01*
X183341Y398447D01*
X183364Y398434D01*
X183507Y398394D01*
X183648Y398349D01*
X183674Y398347D01*
X183699Y398339D01*
X183943Y398320D01*
X238201Y398320D01*
X238326Y398334D01*
X238452Y398341D01*
X238499Y398354D01*
X238547Y398360D01*
X238666Y398402D01*
X238787Y398437D01*
X238829Y398461D01*
X238875Y398477D01*
X238981Y398546D01*
X239091Y398607D01*
X239138Y398647D01*
X239168Y398666D01*
X239201Y398701D01*
X239278Y398766D01*
X239340Y398828D01*
X239919Y399163D01*
X240565Y399336D01*
X242377Y399336D01*
X242377Y389420D01*
X242377Y379504D01*
X240565Y379504D01*
X239919Y379677D01*
X239340Y380012D01*
X239278Y380074D01*
X239179Y380153D01*
X239085Y380237D01*
X239043Y380261D01*
X239005Y380291D01*
X238891Y380345D01*
X238780Y380406D01*
X238733Y380419D01*
X238690Y380440D01*
X238566Y380466D01*
X238444Y380501D01*
X238384Y380506D01*
X238349Y380513D01*
X238301Y380512D01*
X238201Y380520D01*
X222103Y380520D01*
X222003Y380509D01*
X221903Y380507D01*
X221831Y380489D01*
X221757Y380480D01*
X221663Y380447D01*
X221565Y380422D01*
X221499Y380388D01*
X221429Y380363D01*
X221345Y380308D01*
X221255Y380262D01*
X221199Y380214D01*
X221136Y380174D01*
X221066Y380102D01*
X220990Y380037D01*
X220946Y379977D01*
X220894Y379923D01*
X220842Y379837D01*
X220783Y379756D01*
X220753Y379688D01*
X220715Y379624D01*
X220684Y379528D01*
X220645Y379436D01*
X220632Y379363D01*
X220609Y379292D01*
X220601Y379192D01*
X220583Y379093D01*
X220587Y379019D01*
X220581Y378945D01*
X220596Y378845D01*
X220601Y378745D01*
X220622Y378674D01*
X220633Y378600D01*
X220670Y378507D01*
X220697Y378410D01*
X220734Y378345D01*
X220761Y378276D01*
X220819Y378194D01*
X220868Y378106D01*
X220933Y378030D01*
X220960Y377990D01*
X220987Y377966D01*
X221026Y377920D01*
X224271Y374675D01*
X224370Y374596D01*
X224464Y374512D01*
X224506Y374488D01*
X224544Y374458D01*
X224658Y374404D01*
X224769Y374343D01*
X224816Y374330D01*
X224859Y374309D01*
X224983Y374283D01*
X225105Y374248D01*
X225165Y374243D01*
X225200Y374236D01*
X225248Y374237D01*
X225348Y374229D01*
X239173Y374229D01*
X245085Y368317D01*
X247484Y365918D01*
X247488Y365912D01*
X247498Y365887D01*
X247583Y365766D01*
X247663Y365641D01*
X247682Y365623D01*
X247697Y365601D01*
X247807Y365502D01*
X247914Y365399D01*
X247936Y365385D01*
X247956Y365368D01*
X248086Y365296D01*
X248213Y365220D01*
X248218Y365218D01*
X249245Y364192D01*
X249245Y357928D01*
X248352Y357035D01*
X243534Y357035D01*
X243524Y357043D01*
X243500Y357054D01*
X243479Y357070D01*
X243343Y357129D01*
X243209Y357192D01*
X243183Y357198D01*
X243159Y357208D01*
X243013Y357234D01*
X242868Y357266D01*
X242842Y357265D01*
X242816Y357270D01*
X242668Y357262D01*
X242520Y357260D01*
X242494Y357253D01*
X242468Y357252D01*
X242325Y357211D01*
X242182Y357175D01*
X242158Y357163D01*
X242133Y357155D01*
X242004Y357083D01*
X241912Y357035D01*
X238981Y357035D01*
X238881Y357024D01*
X238781Y357022D01*
X238709Y357004D01*
X238635Y356995D01*
X238540Y356962D01*
X238443Y356937D01*
X238377Y356903D01*
X238307Y356878D01*
X238222Y356823D01*
X238133Y356777D01*
X238076Y356729D01*
X238014Y356689D01*
X237944Y356617D01*
X237868Y356552D01*
X237823Y356492D01*
X237772Y356438D01*
X237720Y356352D01*
X237661Y356271D01*
X237631Y356203D01*
X237593Y356139D01*
X237562Y356043D01*
X237523Y355951D01*
X237509Y355878D01*
X237487Y355807D01*
X237479Y355707D01*
X237461Y355608D01*
X237465Y355534D01*
X237459Y355460D01*
X237474Y355360D01*
X237479Y355260D01*
X237499Y355189D01*
X237510Y355115D01*
X237547Y355022D01*
X237575Y354925D01*
X237612Y354860D01*
X237639Y354791D01*
X237696Y354709D01*
X237745Y354621D01*
X237811Y354545D01*
X237838Y354505D01*
X237865Y354481D01*
X237904Y354435D01*
X241964Y350374D01*
X242083Y350281D01*
X242198Y350183D01*
X242219Y350173D01*
X242237Y350158D01*
X242374Y350093D01*
X242508Y350025D01*
X242531Y350019D01*
X242553Y350009D01*
X242700Y349977D01*
X242847Y349941D01*
X242870Y349941D01*
X242893Y349936D01*
X243044Y349938D01*
X243195Y349936D01*
X243223Y349941D01*
X243242Y349942D01*
X243287Y349953D01*
X243436Y349980D01*
X243885Y350101D01*
X244447Y350101D01*
X244447Y345060D01*
X244450Y345034D01*
X244447Y345008D01*
X244469Y344861D01*
X244486Y344714D01*
X244495Y344689D01*
X244499Y344663D01*
X244554Y344526D01*
X244604Y344386D01*
X244618Y344364D01*
X244628Y344340D01*
X244712Y344218D01*
X244793Y344093D01*
X244812Y344075D01*
X244827Y344053D01*
X244937Y343954D01*
X245044Y343851D01*
X245067Y343837D01*
X245086Y343819D01*
X245216Y343748D01*
X245343Y343672D01*
X245368Y343664D01*
X245391Y343651D01*
X245534Y343611D01*
X245675Y343565D01*
X245701Y343563D01*
X245727Y343556D01*
X245970Y343537D01*
X250261Y343537D01*
X250261Y343094D01*
X250272Y342995D01*
X250274Y342894D01*
X250292Y342822D01*
X250301Y342748D01*
X250335Y342654D01*
X250359Y342556D01*
X250393Y342490D01*
X250418Y342420D01*
X250473Y342336D01*
X250519Y342246D01*
X250567Y342190D01*
X250607Y342127D01*
X250679Y342058D01*
X250745Y341981D01*
X250804Y341937D01*
X250858Y341885D01*
X250944Y341834D01*
X251025Y341774D01*
X251093Y341744D01*
X251157Y341706D01*
X251253Y341676D01*
X251345Y341636D01*
X251418Y341623D01*
X251489Y341600D01*
X251589Y341592D01*
X251688Y341574D01*
X251762Y341578D01*
X251836Y341572D01*
X251935Y341587D01*
X252036Y341592D01*
X252107Y341613D01*
X252181Y341624D01*
X252274Y341661D01*
X252371Y341689D01*
X252436Y341725D01*
X252505Y341753D01*
X252522Y341765D01*
X266872Y341765D01*
X267569Y341067D01*
X267610Y341035D01*
X267644Y340997D01*
X267745Y340927D01*
X267842Y340850D01*
X267889Y340828D01*
X267931Y340799D01*
X268046Y340754D01*
X268158Y340701D01*
X268207Y340691D01*
X268255Y340672D01*
X268377Y340654D01*
X268498Y340628D01*
X268549Y340629D01*
X268600Y340621D01*
X268723Y340632D01*
X268847Y340634D01*
X268896Y340646D01*
X268947Y340651D01*
X269065Y340689D01*
X269185Y340719D01*
X269230Y340742D01*
X269279Y340758D01*
X269385Y340822D01*
X269494Y340879D01*
X269533Y340912D01*
X269577Y340938D01*
X269666Y341024D01*
X269760Y341104D01*
X269790Y341145D01*
X269827Y341181D01*
X269966Y341382D01*
X270207Y341800D01*
X270680Y342273D01*
X271259Y342608D01*
X271905Y342781D01*
X275693Y342781D01*
X275693Y334264D01*
X275696Y334238D01*
X275694Y334212D01*
X275716Y334065D01*
X275733Y333918D01*
X275741Y333893D01*
X275745Y333867D01*
X275800Y333729D01*
X275850Y333590D01*
X275864Y333568D01*
X275874Y333543D01*
X275959Y333422D01*
X276039Y333297D01*
X276058Y333279D01*
X276073Y333257D01*
X276183Y333158D01*
X276290Y333055D01*
X276312Y333041D01*
X276332Y333024D01*
X276462Y332952D01*
X276589Y332876D01*
X276614Y332868D01*
X276637Y332855D01*
X276780Y332815D01*
X276921Y332770D01*
X276947Y332768D01*
X276972Y332760D01*
X277216Y332741D01*
X278741Y332741D01*
X278741Y332739D01*
X277216Y332739D01*
X277190Y332736D01*
X277164Y332738D01*
X277017Y332716D01*
X276870Y332699D01*
X276845Y332690D01*
X276819Y332687D01*
X276681Y332632D01*
X276542Y332582D01*
X276520Y332568D01*
X276495Y332558D01*
X276374Y332473D01*
X276249Y332393D01*
X276231Y332374D01*
X276209Y332359D01*
X276110Y332249D01*
X276007Y332142D01*
X275993Y332120D01*
X275976Y332100D01*
X275904Y331970D01*
X275828Y331843D01*
X275820Y331818D01*
X275807Y331795D01*
X275767Y331652D01*
X275722Y331511D01*
X275720Y331485D01*
X275712Y331460D01*
X275693Y331216D01*
X275693Y322419D01*
X275707Y322294D01*
X275714Y322167D01*
X275727Y322121D01*
X275733Y322073D01*
X275775Y321954D01*
X275810Y321833D01*
X275834Y321790D01*
X275850Y321745D01*
X275919Y321639D01*
X275980Y321528D01*
X276020Y321482D01*
X276039Y321452D01*
X276074Y321419D01*
X276139Y321342D01*
X325210Y272271D01*
X325309Y272192D01*
X325403Y272108D01*
X325445Y272084D01*
X325483Y272054D01*
X325597Y272000D01*
X325708Y271939D01*
X325755Y271926D01*
X325798Y271905D01*
X325922Y271879D01*
X326043Y271844D01*
X326104Y271839D01*
X326139Y271832D01*
X326187Y271833D01*
X326287Y271825D01*
X334832Y271825D01*
X335725Y270932D01*
X335725Y262387D01*
X335739Y262262D01*
X335746Y262135D01*
X335759Y262089D01*
X335765Y262041D01*
X335807Y261922D01*
X335842Y261801D01*
X335866Y261758D01*
X335882Y261713D01*
X335951Y261607D01*
X336012Y261496D01*
X336052Y261450D01*
X336071Y261420D01*
X336106Y261387D01*
X336171Y261310D01*
X342959Y254522D01*
X343037Y254460D01*
X343110Y254390D01*
X343174Y254352D01*
X343232Y254305D01*
X343323Y254263D01*
X343409Y254211D01*
X343480Y254188D01*
X343547Y254157D01*
X343645Y254135D01*
X343741Y254105D01*
X343815Y254099D01*
X343888Y254083D01*
X343988Y254085D01*
X344088Y254077D01*
X344162Y254088D01*
X344236Y254089D01*
X344333Y254114D01*
X344433Y254129D01*
X344502Y254156D01*
X344574Y254174D01*
X344664Y254220D01*
X344757Y254257D01*
X344818Y254300D01*
X344884Y254334D01*
X344961Y254399D01*
X345043Y254456D01*
X345093Y254511D01*
X345149Y254560D01*
X345209Y254640D01*
X345276Y254715D01*
X345312Y254780D01*
X345357Y254840D01*
X345396Y254932D01*
X345445Y255020D01*
X345465Y255092D01*
X345495Y255160D01*
X345512Y255259D01*
X345540Y255355D01*
X345541Y255373D01*
X354076Y255373D01*
X354102Y255376D01*
X354128Y255374D01*
X354275Y255396D01*
X354422Y255413D01*
X354447Y255421D01*
X354473Y255425D01*
X354611Y255480D01*
X354750Y255530D01*
X354772Y255544D01*
X354797Y255554D01*
X354918Y255639D01*
X355043Y255719D01*
X355061Y255738D01*
X355083Y255753D01*
X355182Y255863D01*
X355285Y255970D01*
X355299Y255992D01*
X355316Y256012D01*
X355388Y256142D01*
X355464Y256269D01*
X355472Y256294D01*
X355485Y256317D01*
X355525Y256460D01*
X355570Y256601D01*
X355572Y256627D01*
X355580Y256652D01*
X355599Y256896D01*
X355599Y258421D01*
X355601Y258421D01*
X355601Y256896D01*
X355604Y256870D01*
X355602Y256844D01*
X355624Y256697D01*
X355641Y256550D01*
X355650Y256525D01*
X355653Y256499D01*
X355708Y256361D01*
X355758Y256222D01*
X355772Y256200D01*
X355782Y256175D01*
X355867Y256054D01*
X355947Y255929D01*
X355966Y255911D01*
X355981Y255889D01*
X356091Y255790D01*
X356198Y255687D01*
X356220Y255673D01*
X356240Y255656D01*
X356370Y255584D01*
X356497Y255508D01*
X356522Y255500D01*
X356545Y255487D01*
X356688Y255447D01*
X356829Y255402D01*
X356855Y255400D01*
X356880Y255392D01*
X357124Y255373D01*
X365641Y255373D01*
X365641Y251585D01*
X365468Y250939D01*
X365133Y250360D01*
X364660Y249887D01*
X364242Y249646D01*
X364201Y249615D01*
X364156Y249592D01*
X364086Y249532D01*
X364078Y249527D01*
X364070Y249519D01*
X364062Y249512D01*
X363962Y249438D01*
X363929Y249399D01*
X363891Y249366D01*
X363817Y249267D01*
X363737Y249172D01*
X363714Y249127D01*
X363683Y249086D01*
X363634Y248972D01*
X363578Y248862D01*
X363566Y248813D01*
X363545Y248766D01*
X363524Y248644D01*
X363494Y248524D01*
X363493Y248473D01*
X363484Y248423D01*
X363490Y248299D01*
X363488Y248176D01*
X363499Y248126D01*
X363502Y248075D01*
X363536Y247956D01*
X363562Y247835D01*
X363584Y247789D01*
X363598Y247740D01*
X363659Y247632D01*
X363712Y247520D01*
X363743Y247480D01*
X363768Y247436D01*
X363927Y247249D01*
X364625Y246552D01*
X364625Y232288D01*
X363732Y231395D01*
X347468Y231395D01*
X346575Y232288D01*
X346575Y234467D01*
X346561Y234593D01*
X346554Y234719D01*
X346541Y234766D01*
X346535Y234814D01*
X346493Y234933D01*
X346458Y235054D01*
X346434Y235096D01*
X346418Y235142D01*
X346349Y235248D01*
X346288Y235358D01*
X346248Y235404D01*
X346229Y235435D01*
X346194Y235468D01*
X346129Y235545D01*
X338325Y243349D01*
X338247Y243411D01*
X338174Y243481D01*
X338147Y243497D01*
X338146Y243498D01*
X338141Y243501D01*
X338110Y243519D01*
X338052Y243565D01*
X337961Y243608D01*
X337875Y243660D01*
X337804Y243682D01*
X337737Y243714D01*
X337639Y243735D01*
X337543Y243766D01*
X337469Y243772D01*
X337396Y243788D01*
X337296Y243786D01*
X337196Y243794D01*
X337122Y243783D01*
X337048Y243782D01*
X336951Y243757D01*
X336851Y243742D01*
X336782Y243715D01*
X336710Y243697D01*
X336620Y243651D01*
X336527Y243613D01*
X336466Y243571D01*
X336400Y243537D01*
X336323Y243472D01*
X336241Y243415D01*
X336191Y243359D01*
X336135Y243311D01*
X336075Y243230D01*
X336008Y243156D01*
X335972Y243091D01*
X335927Y243031D01*
X335888Y242939D01*
X335839Y242851D01*
X335819Y242779D01*
X335789Y242711D01*
X335772Y242612D01*
X335765Y242587D01*
X335754Y242553D01*
X335753Y242546D01*
X335744Y242515D01*
X335736Y242415D01*
X335728Y242368D01*
X335730Y242332D01*
X335725Y242272D01*
X335725Y211668D01*
X334832Y210775D01*
X277403Y210775D01*
X277303Y210764D01*
X277203Y210762D01*
X277131Y210744D01*
X277057Y210735D01*
X276963Y210702D01*
X276865Y210677D01*
X276799Y210643D01*
X276729Y210618D01*
X276645Y210563D01*
X276555Y210517D01*
X276499Y210469D01*
X276436Y210429D01*
X276366Y210357D01*
X276290Y210292D01*
X276246Y210232D01*
X276194Y210178D01*
X276142Y210092D01*
X276083Y210011D01*
X276053Y209943D01*
X276015Y209879D01*
X275984Y209783D01*
X275945Y209691D01*
X275932Y209618D01*
X275909Y209547D01*
X275901Y209447D01*
X275883Y209348D01*
X275887Y209274D01*
X275881Y209200D01*
X275896Y209100D01*
X275901Y209000D01*
X275922Y208929D01*
X275933Y208855D01*
X275970Y208762D01*
X275997Y208665D01*
X276034Y208600D01*
X276061Y208531D01*
X276119Y208449D01*
X276168Y208361D01*
X276233Y208285D01*
X276260Y208245D01*
X276287Y208221D01*
X276326Y208175D01*
X288430Y196071D01*
X288529Y195992D01*
X288623Y195908D01*
X288665Y195884D01*
X288703Y195854D01*
X288817Y195800D01*
X288928Y195739D01*
X288975Y195726D01*
X289018Y195705D01*
X289142Y195679D01*
X289263Y195644D01*
X289324Y195639D01*
X289359Y195632D01*
X289407Y195633D01*
X289507Y195625D01*
X334832Y195625D01*
X335725Y194732D01*
X335725Y169624D01*
X335728Y169598D01*
X335726Y169572D01*
X335748Y169424D01*
X335765Y169278D01*
X335773Y169253D01*
X335777Y169227D01*
X335832Y169089D01*
X335882Y168950D01*
X335896Y168928D01*
X335906Y168903D01*
X335991Y168782D01*
X336071Y168657D01*
X336090Y168639D01*
X336105Y168617D01*
X336215Y168518D01*
X336322Y168415D01*
X336344Y168401D01*
X336364Y168384D01*
X336494Y168312D01*
X336621Y168236D01*
X336646Y168228D01*
X336669Y168215D01*
X336812Y168175D01*
X336953Y168130D01*
X336979Y168128D01*
X337004Y168120D01*
X337248Y168101D01*
X344036Y168101D01*
X344062Y168104D01*
X344088Y168102D01*
X344235Y168124D01*
X344382Y168141D01*
X344407Y168149D01*
X344433Y168153D01*
X344571Y168208D01*
X344710Y168258D01*
X344732Y168272D01*
X344757Y168282D01*
X344878Y168367D01*
X345003Y168447D01*
X345021Y168466D01*
X345043Y168481D01*
X345142Y168591D01*
X345245Y168698D01*
X345259Y168720D01*
X345276Y168740D01*
X345348Y168870D01*
X345424Y168997D01*
X345432Y169022D01*
X345445Y169045D01*
X345485Y169188D01*
X345530Y169329D01*
X345532Y169355D01*
X345540Y169380D01*
X345559Y169624D01*
X345559Y171553D01*
X354076Y171553D01*
X354102Y171556D01*
X354128Y171554D01*
X354275Y171576D01*
X354422Y171593D01*
X354447Y171601D01*
X354473Y171605D01*
X354611Y171660D01*
X354750Y171710D01*
X354772Y171724D01*
X354797Y171734D01*
X354918Y171819D01*
X355043Y171899D01*
X355061Y171918D01*
X355083Y171933D01*
X355182Y172043D01*
X355285Y172150D01*
X355299Y172172D01*
X355316Y172192D01*
X355388Y172322D01*
X355464Y172449D01*
X355472Y172474D01*
X355485Y172497D01*
X355525Y172640D01*
X355570Y172781D01*
X355572Y172807D01*
X355580Y172832D01*
X355599Y173076D01*
X355599Y174601D01*
X355601Y174601D01*
X355601Y173076D01*
X355604Y173050D01*
X355602Y173024D01*
X355624Y172877D01*
X355641Y172730D01*
X355650Y172705D01*
X355653Y172679D01*
X355708Y172541D01*
X355758Y172402D01*
X355772Y172380D01*
X355782Y172355D01*
X355867Y172234D01*
X355947Y172109D01*
X355966Y172091D01*
X355981Y172069D01*
X356091Y171970D01*
X356198Y171867D01*
X356220Y171853D01*
X356240Y171836D01*
X356370Y171764D01*
X356497Y171688D01*
X356522Y171680D01*
X356545Y171667D01*
X356688Y171627D01*
X356829Y171582D01*
X356855Y171580D01*
X356880Y171572D01*
X357124Y171553D01*
X365641Y171553D01*
X365641Y167765D01*
X365468Y167119D01*
X365133Y166540D01*
X364660Y166067D01*
X364242Y165826D01*
X364201Y165795D01*
X364156Y165772D01*
X364062Y165692D01*
X363962Y165618D01*
X363929Y165579D01*
X363891Y165546D01*
X363817Y165447D01*
X363737Y165352D01*
X363714Y165307D01*
X363683Y165266D01*
X363634Y165152D01*
X363578Y165042D01*
X363566Y164993D01*
X363545Y164946D01*
X363524Y164824D01*
X363494Y164704D01*
X363493Y164653D01*
X363484Y164603D01*
X363490Y164479D01*
X363488Y164356D01*
X363499Y164306D01*
X363502Y164255D01*
X363536Y164136D01*
X363562Y164015D01*
X363584Y163969D01*
X363598Y163920D01*
X363659Y163812D01*
X363712Y163700D01*
X363743Y163660D01*
X363768Y163616D01*
X363927Y163429D01*
X364625Y162732D01*
X364625Y148468D01*
X363732Y147575D01*
X347468Y147575D01*
X346575Y148468D01*
X346575Y155400D01*
X346572Y155426D01*
X346574Y155452D01*
X346552Y155599D01*
X346535Y155746D01*
X346527Y155771D01*
X346523Y155797D01*
X346468Y155935D01*
X346418Y156074D01*
X346404Y156096D01*
X346394Y156121D01*
X346309Y156242D01*
X346229Y156367D01*
X346210Y156385D01*
X346195Y156407D01*
X346085Y156506D01*
X345978Y156609D01*
X345956Y156623D01*
X345936Y156640D01*
X345806Y156712D01*
X345679Y156788D01*
X345654Y156796D01*
X345631Y156809D01*
X345488Y156849D01*
X345347Y156894D01*
X345321Y156896D01*
X345296Y156904D01*
X345052Y156923D01*
X337248Y156923D01*
X337222Y156920D01*
X337196Y156922D01*
X337049Y156900D01*
X336902Y156883D01*
X336877Y156875D01*
X336851Y156871D01*
X336713Y156816D01*
X336574Y156766D01*
X336552Y156752D01*
X336527Y156742D01*
X336406Y156657D01*
X336281Y156577D01*
X336263Y156558D01*
X336241Y156543D01*
X336142Y156433D01*
X336039Y156326D01*
X336025Y156304D01*
X336008Y156284D01*
X335936Y156154D01*
X335860Y156027D01*
X335852Y156002D01*
X335839Y155979D01*
X335799Y155836D01*
X335754Y155695D01*
X335752Y155669D01*
X335744Y155644D01*
X335725Y155400D01*
X335725Y135468D01*
X334832Y134575D01*
X271568Y134575D01*
G37*
%LPD*%
%LPC*%
G36*
X215768Y132775D02*
X215768Y132775D01*
X214879Y133665D01*
X214779Y133744D01*
X214686Y133828D01*
X214643Y133852D01*
X214606Y133882D01*
X214491Y133936D01*
X214381Y133997D01*
X214334Y134010D01*
X214291Y134031D01*
X214167Y134057D01*
X214045Y134092D01*
X213985Y134097D01*
X213950Y134104D01*
X213902Y134103D01*
X213802Y134111D01*
X205288Y134111D01*
X203234Y134962D01*
X191067Y147129D01*
X190968Y147208D01*
X190874Y147292D01*
X190832Y147316D01*
X190794Y147346D01*
X190680Y147400D01*
X190569Y147461D01*
X190523Y147474D01*
X190479Y147495D01*
X190356Y147521D01*
X190234Y147556D01*
X190173Y147561D01*
X190138Y147568D01*
X190090Y147567D01*
X189990Y147575D01*
X182368Y147575D01*
X181475Y148468D01*
X181475Y162732D01*
X182173Y163429D01*
X182205Y163470D01*
X182243Y163504D01*
X182313Y163605D01*
X182390Y163702D01*
X182412Y163749D01*
X182441Y163791D01*
X182486Y163906D01*
X182539Y164018D01*
X182549Y164067D01*
X182568Y164115D01*
X182586Y164237D01*
X182612Y164358D01*
X182611Y164409D01*
X182619Y164460D01*
X182608Y164583D01*
X182606Y164707D01*
X182594Y164756D01*
X182589Y164807D01*
X182551Y164925D01*
X182521Y165045D01*
X182498Y165090D01*
X182482Y165139D01*
X182418Y165245D01*
X182361Y165354D01*
X182328Y165393D01*
X182302Y165437D01*
X182216Y165526D01*
X182136Y165620D01*
X182095Y165650D01*
X182059Y165687D01*
X181858Y165826D01*
X181440Y166067D01*
X180967Y166540D01*
X180632Y167119D01*
X180459Y167765D01*
X180459Y171553D01*
X188976Y171553D01*
X189002Y171556D01*
X189028Y171554D01*
X189175Y171576D01*
X189322Y171593D01*
X189347Y171601D01*
X189373Y171605D01*
X189511Y171660D01*
X189650Y171710D01*
X189672Y171724D01*
X189697Y171734D01*
X189818Y171819D01*
X189943Y171899D01*
X189961Y171918D01*
X189983Y171933D01*
X190082Y172043D01*
X190185Y172150D01*
X190199Y172172D01*
X190216Y172192D01*
X190288Y172322D01*
X190364Y172449D01*
X190372Y172474D01*
X190385Y172497D01*
X190425Y172640D01*
X190470Y172781D01*
X190472Y172807D01*
X190480Y172832D01*
X190499Y173076D01*
X190499Y174601D01*
X190501Y174601D01*
X190501Y173076D01*
X190504Y173050D01*
X190502Y173024D01*
X190524Y172877D01*
X190541Y172730D01*
X190550Y172705D01*
X190553Y172679D01*
X190608Y172541D01*
X190658Y172402D01*
X190672Y172380D01*
X190682Y172355D01*
X190767Y172234D01*
X190847Y172109D01*
X190866Y172091D01*
X190881Y172069D01*
X190991Y171970D01*
X191098Y171867D01*
X191120Y171853D01*
X191140Y171836D01*
X191270Y171764D01*
X191397Y171688D01*
X191422Y171680D01*
X191445Y171667D01*
X191588Y171627D01*
X191729Y171582D01*
X191755Y171580D01*
X191780Y171572D01*
X192024Y171553D01*
X200541Y171553D01*
X200541Y169624D01*
X200544Y169598D01*
X200542Y169572D01*
X200564Y169424D01*
X200581Y169278D01*
X200589Y169253D01*
X200593Y169227D01*
X200648Y169089D01*
X200698Y168950D01*
X200712Y168928D01*
X200722Y168903D01*
X200807Y168782D01*
X200887Y168657D01*
X200906Y168639D01*
X200921Y168617D01*
X201031Y168518D01*
X201138Y168415D01*
X201160Y168401D01*
X201180Y168384D01*
X201310Y168312D01*
X201437Y168236D01*
X201462Y168228D01*
X201485Y168215D01*
X201628Y168175D01*
X201769Y168130D01*
X201795Y168128D01*
X201820Y168120D01*
X202064Y168101D01*
X233969Y168101D01*
X234094Y168115D01*
X234221Y168122D01*
X234267Y168135D01*
X234315Y168141D01*
X234434Y168183D01*
X234555Y168218D01*
X234598Y168242D01*
X234643Y168258D01*
X234749Y168327D01*
X234860Y168388D01*
X234906Y168428D01*
X234936Y168447D01*
X234969Y168482D01*
X235046Y168547D01*
X241258Y174759D01*
X241320Y174837D01*
X241390Y174910D01*
X241428Y174974D01*
X241475Y175032D01*
X241517Y175123D01*
X241569Y175209D01*
X241592Y175280D01*
X241623Y175347D01*
X241645Y175445D01*
X241675Y175541D01*
X241681Y175615D01*
X241697Y175688D01*
X241695Y175788D01*
X241703Y175888D01*
X241692Y175962D01*
X241691Y176036D01*
X241666Y176133D01*
X241651Y176233D01*
X241624Y176302D01*
X241606Y176374D01*
X241560Y176464D01*
X241523Y176557D01*
X241480Y176618D01*
X241446Y176684D01*
X241381Y176761D01*
X241324Y176843D01*
X241269Y176893D01*
X241220Y176949D01*
X241140Y177009D01*
X241065Y177076D01*
X241000Y177112D01*
X240940Y177157D01*
X240848Y177196D01*
X240760Y177245D01*
X240688Y177265D01*
X240620Y177295D01*
X240521Y177312D01*
X240425Y177340D01*
X240325Y177348D01*
X240277Y177356D01*
X240241Y177354D01*
X240181Y177359D01*
X234447Y177359D01*
X234447Y186376D01*
X234444Y186402D01*
X234446Y186428D01*
X234424Y186575D01*
X234407Y186722D01*
X234398Y186747D01*
X234395Y186773D01*
X234340Y186911D01*
X234290Y187050D01*
X234276Y187072D01*
X234266Y187097D01*
X234181Y187218D01*
X234101Y187343D01*
X234082Y187361D01*
X234067Y187383D01*
X233957Y187482D01*
X233850Y187585D01*
X233828Y187599D01*
X233808Y187616D01*
X233678Y187688D01*
X233551Y187764D01*
X233526Y187772D01*
X233503Y187785D01*
X233360Y187825D01*
X233219Y187870D01*
X233193Y187872D01*
X233168Y187880D01*
X232924Y187899D01*
X231399Y187899D01*
X231399Y187901D01*
X232924Y187901D01*
X232950Y187904D01*
X232976Y187902D01*
X233123Y187924D01*
X233270Y187941D01*
X233295Y187950D01*
X233321Y187953D01*
X233459Y188008D01*
X233598Y188058D01*
X233620Y188072D01*
X233645Y188082D01*
X233766Y188167D01*
X233891Y188247D01*
X233909Y188266D01*
X233931Y188281D01*
X234030Y188391D01*
X234133Y188498D01*
X234147Y188520D01*
X234164Y188540D01*
X234236Y188670D01*
X234312Y188797D01*
X234320Y188822D01*
X234333Y188845D01*
X234373Y188988D01*
X234418Y189129D01*
X234420Y189155D01*
X234428Y189180D01*
X234447Y189424D01*
X234447Y198441D01*
X240181Y198441D01*
X240281Y198452D01*
X240381Y198454D01*
X240453Y198472D01*
X240527Y198481D01*
X240621Y198514D01*
X240719Y198539D01*
X240785Y198573D01*
X240855Y198598D01*
X240939Y198653D01*
X241029Y198699D01*
X241085Y198747D01*
X241148Y198787D01*
X241218Y198859D01*
X241294Y198924D01*
X241338Y198984D01*
X241390Y199038D01*
X241442Y199124D01*
X241501Y199205D01*
X241531Y199273D01*
X241569Y199337D01*
X241600Y199432D01*
X241639Y199525D01*
X241652Y199598D01*
X241675Y199669D01*
X241683Y199769D01*
X241701Y199868D01*
X241697Y199942D01*
X241703Y200016D01*
X241688Y200115D01*
X241683Y200216D01*
X241662Y200287D01*
X241651Y200361D01*
X241614Y200454D01*
X241587Y200551D01*
X241550Y200616D01*
X241523Y200685D01*
X241465Y200767D01*
X241416Y200855D01*
X241351Y200931D01*
X241324Y200971D01*
X241297Y200995D01*
X241258Y201041D01*
X236562Y205737D01*
X235610Y208035D01*
X235573Y208102D01*
X235545Y208173D01*
X235489Y208253D01*
X235441Y208340D01*
X235389Y208396D01*
X235346Y208459D01*
X235273Y208525D01*
X235207Y208598D01*
X235144Y208641D01*
X235087Y208692D01*
X235001Y208740D01*
X234920Y208796D01*
X234849Y208824D01*
X234782Y208861D01*
X234687Y208888D01*
X234596Y208924D01*
X234520Y208935D01*
X234447Y208956D01*
X234298Y208968D01*
X234251Y208975D01*
X234232Y208973D01*
X234203Y208975D01*
X215768Y208975D01*
X214875Y209868D01*
X214875Y211388D01*
X214872Y211414D01*
X214874Y211440D01*
X214852Y211587D01*
X214835Y211734D01*
X214827Y211759D01*
X214823Y211785D01*
X214768Y211923D01*
X214718Y212062D01*
X214704Y212084D01*
X214694Y212109D01*
X214609Y212230D01*
X214529Y212355D01*
X214510Y212373D01*
X214495Y212395D01*
X214385Y212494D01*
X214278Y212597D01*
X214256Y212611D01*
X214236Y212628D01*
X214106Y212700D01*
X213979Y212776D01*
X213954Y212784D01*
X213931Y212797D01*
X213788Y212837D01*
X213647Y212882D01*
X213621Y212884D01*
X213596Y212892D01*
X213352Y212911D01*
X202688Y212911D01*
X200634Y213762D01*
X191067Y223329D01*
X190968Y223408D01*
X190874Y223492D01*
X190832Y223516D01*
X190794Y223546D01*
X190680Y223600D01*
X190569Y223661D01*
X190523Y223674D01*
X190479Y223695D01*
X190356Y223721D01*
X190234Y223756D01*
X190173Y223761D01*
X190138Y223768D01*
X190090Y223767D01*
X189990Y223775D01*
X188136Y223775D01*
X188011Y223761D01*
X187884Y223754D01*
X187838Y223741D01*
X187790Y223735D01*
X187671Y223693D01*
X187550Y223658D01*
X187507Y223634D01*
X187462Y223618D01*
X187356Y223549D01*
X187245Y223488D01*
X187199Y223448D01*
X187169Y223429D01*
X187136Y223394D01*
X187059Y223329D01*
X167059Y203329D01*
X166980Y203230D01*
X166896Y203136D01*
X166872Y203094D01*
X166842Y203056D01*
X166788Y202942D01*
X166727Y202831D01*
X166714Y202784D01*
X166693Y202741D01*
X166667Y202617D01*
X166632Y202496D01*
X166630Y202471D01*
X164976Y200817D01*
X162436Y198277D01*
X162349Y198264D01*
X162202Y198247D01*
X162177Y198239D01*
X162151Y198235D01*
X162013Y198180D01*
X161874Y198130D01*
X161852Y198116D01*
X161827Y198106D01*
X161706Y198021D01*
X161581Y197941D01*
X161563Y197922D01*
X161541Y197907D01*
X161442Y197797D01*
X161339Y197690D01*
X161325Y197668D01*
X161308Y197648D01*
X161236Y197518D01*
X161160Y197391D01*
X161152Y197366D01*
X161139Y197343D01*
X161099Y197200D01*
X161054Y197059D01*
X161052Y197033D01*
X161044Y197008D01*
X161025Y196769D01*
X160132Y195875D01*
X138868Y195875D01*
X137791Y196953D01*
X137692Y197032D01*
X137598Y197116D01*
X137555Y197140D01*
X137518Y197170D01*
X137403Y197224D01*
X137293Y197285D01*
X137246Y197298D01*
X137202Y197319D01*
X137079Y197345D01*
X136957Y197380D01*
X136897Y197385D01*
X136862Y197392D01*
X136814Y197391D01*
X136713Y197399D01*
X124024Y197399D01*
X123998Y197396D01*
X123972Y197398D01*
X123825Y197376D01*
X123678Y197359D01*
X123653Y197351D01*
X123627Y197347D01*
X123489Y197292D01*
X123350Y197242D01*
X123328Y197228D01*
X123303Y197218D01*
X123182Y197133D01*
X123057Y197053D01*
X123039Y197034D01*
X123017Y197019D01*
X122918Y196909D01*
X122815Y196802D01*
X122801Y196780D01*
X122784Y196760D01*
X122712Y196630D01*
X122636Y196503D01*
X122628Y196478D01*
X122615Y196455D01*
X122575Y196312D01*
X122530Y196171D01*
X122528Y196145D01*
X122520Y196120D01*
X122501Y195876D01*
X122501Y177400D01*
X122500Y177399D01*
X108048Y177399D01*
X108022Y177396D01*
X107996Y177398D01*
X107849Y177376D01*
X107702Y177359D01*
X107677Y177351D01*
X107651Y177347D01*
X107513Y177292D01*
X107374Y177242D01*
X107352Y177228D01*
X107327Y177218D01*
X107206Y177133D01*
X107081Y177053D01*
X107063Y177034D01*
X107041Y177019D01*
X106942Y176909D01*
X106839Y176802D01*
X106825Y176780D01*
X106808Y176760D01*
X106736Y176630D01*
X106660Y176503D01*
X106652Y176478D01*
X106639Y176455D01*
X106599Y176312D01*
X106554Y176171D01*
X106552Y176145D01*
X106544Y176120D01*
X106525Y175876D01*
X106525Y160768D01*
X105632Y159875D01*
X82368Y159875D01*
X81475Y160768D01*
X81475Y175876D01*
X81472Y175902D01*
X81474Y175928D01*
X81452Y176075D01*
X81435Y176222D01*
X81427Y176247D01*
X81423Y176273D01*
X81368Y176411D01*
X81318Y176550D01*
X81304Y176572D01*
X81294Y176597D01*
X81209Y176718D01*
X81129Y176843D01*
X81110Y176861D01*
X81095Y176883D01*
X80985Y176982D01*
X80878Y177085D01*
X80856Y177099D01*
X80836Y177116D01*
X80706Y177188D01*
X80579Y177264D01*
X80554Y177272D01*
X80531Y177285D01*
X80388Y177325D01*
X80247Y177370D01*
X80221Y177372D01*
X80196Y177380D01*
X79952Y177399D01*
X63000Y177399D01*
X62999Y177400D01*
X62999Y254400D01*
X63000Y254401D01*
X79952Y254401D01*
X79978Y254404D01*
X80004Y254402D01*
X80151Y254424D01*
X80298Y254441D01*
X80323Y254449D01*
X80349Y254453D01*
X80487Y254508D01*
X80626Y254558D01*
X80648Y254572D01*
X80673Y254582D01*
X80794Y254667D01*
X80919Y254747D01*
X80937Y254766D01*
X80959Y254781D01*
X81058Y254891D01*
X81161Y254998D01*
X81175Y255020D01*
X81192Y255040D01*
X81264Y255170D01*
X81340Y255297D01*
X81348Y255322D01*
X81361Y255345D01*
X81401Y255488D01*
X81446Y255629D01*
X81448Y255655D01*
X81456Y255680D01*
X81475Y255924D01*
X81475Y271032D01*
X82368Y271925D01*
X105632Y271925D01*
X106525Y271032D01*
X106525Y255924D01*
X106526Y255915D01*
X106526Y255909D01*
X106528Y255898D01*
X106526Y255872D01*
X106548Y255725D01*
X106565Y255578D01*
X106573Y255553D01*
X106577Y255527D01*
X106632Y255389D01*
X106682Y255250D01*
X106696Y255228D01*
X106706Y255203D01*
X106791Y255082D01*
X106871Y254957D01*
X106890Y254939D01*
X106905Y254917D01*
X107015Y254818D01*
X107122Y254715D01*
X107144Y254701D01*
X107164Y254684D01*
X107294Y254612D01*
X107421Y254536D01*
X107446Y254528D01*
X107469Y254515D01*
X107612Y254475D01*
X107753Y254430D01*
X107779Y254428D01*
X107804Y254420D01*
X108048Y254401D01*
X122500Y254401D01*
X122501Y254400D01*
X122501Y235924D01*
X122504Y235898D01*
X122502Y235872D01*
X122524Y235725D01*
X122541Y235578D01*
X122549Y235553D01*
X122553Y235527D01*
X122608Y235389D01*
X122658Y235250D01*
X122672Y235228D01*
X122682Y235203D01*
X122767Y235082D01*
X122847Y234957D01*
X122866Y234939D01*
X122881Y234917D01*
X122991Y234818D01*
X123098Y234715D01*
X123120Y234701D01*
X123140Y234684D01*
X123270Y234612D01*
X123397Y234536D01*
X123422Y234528D01*
X123445Y234515D01*
X123588Y234475D01*
X123729Y234430D01*
X123755Y234428D01*
X123780Y234420D01*
X124024Y234401D01*
X135701Y234401D01*
X135703Y234401D01*
X135705Y234401D01*
X135879Y234421D01*
X136047Y234441D01*
X136049Y234441D01*
X136051Y234441D01*
X136211Y234499D01*
X136375Y234558D01*
X136377Y234559D01*
X136379Y234560D01*
X136523Y234653D01*
X136668Y234747D01*
X136669Y234748D01*
X136671Y234749D01*
X136790Y234873D01*
X136910Y234998D01*
X136911Y234999D01*
X136912Y235001D01*
X137001Y235149D01*
X137089Y235297D01*
X137090Y235299D01*
X137091Y235300D01*
X137098Y235322D01*
X137467Y235960D01*
X137940Y236433D01*
X138519Y236768D01*
X139165Y236941D01*
X147977Y236941D01*
X147977Y231900D01*
X147980Y231874D01*
X147977Y231848D01*
X147999Y231701D01*
X148016Y231554D01*
X148025Y231529D01*
X148029Y231503D01*
X148084Y231366D01*
X148134Y231226D01*
X148148Y231204D01*
X148158Y231180D01*
X148242Y231058D01*
X148323Y230933D01*
X148342Y230915D01*
X148357Y230893D01*
X148467Y230794D01*
X148574Y230691D01*
X148597Y230677D01*
X148616Y230659D01*
X148746Y230588D01*
X148873Y230512D01*
X148898Y230504D01*
X148921Y230491D01*
X149064Y230451D01*
X149205Y230405D01*
X149231Y230403D01*
X149257Y230396D01*
X149500Y230377D01*
X162041Y230377D01*
X162041Y229065D01*
X161868Y228419D01*
X161533Y227840D01*
X161471Y227778D01*
X161392Y227679D01*
X161308Y227585D01*
X161284Y227543D01*
X161254Y227505D01*
X161200Y227391D01*
X161139Y227280D01*
X161126Y227233D01*
X161105Y227190D01*
X161079Y227066D01*
X161044Y226944D01*
X161039Y226884D01*
X161032Y226849D01*
X161033Y226801D01*
X161025Y226701D01*
X161025Y220714D01*
X161017Y220704D01*
X161006Y220680D01*
X160990Y220659D01*
X160931Y220523D01*
X160868Y220389D01*
X160862Y220363D01*
X160852Y220339D01*
X160826Y220193D01*
X160794Y220048D01*
X160795Y220022D01*
X160790Y219996D01*
X160798Y219848D01*
X160800Y219700D01*
X160807Y219674D01*
X160808Y219648D01*
X160849Y219506D01*
X160885Y219362D01*
X160897Y219339D01*
X160905Y219313D01*
X160977Y219184D01*
X161025Y219092D01*
X161025Y212714D01*
X161017Y212704D01*
X161006Y212680D01*
X160990Y212659D01*
X160931Y212523D01*
X160868Y212389D01*
X160862Y212363D01*
X160852Y212339D01*
X160826Y212193D01*
X160794Y212048D01*
X160795Y212022D01*
X160790Y211996D01*
X160798Y211848D01*
X160800Y211700D01*
X160807Y211674D01*
X160808Y211648D01*
X160849Y211506D01*
X160885Y211362D01*
X160897Y211339D01*
X160905Y211313D01*
X160977Y211184D01*
X161025Y211092D01*
X161025Y211032D01*
X161036Y210932D01*
X161038Y210832D01*
X161056Y210760D01*
X161065Y210686D01*
X161098Y210591D01*
X161123Y210494D01*
X161157Y210428D01*
X161182Y210358D01*
X161237Y210273D01*
X161283Y210184D01*
X161331Y210127D01*
X161371Y210065D01*
X161443Y209995D01*
X161508Y209919D01*
X161568Y209875D01*
X161622Y209823D01*
X161708Y209771D01*
X161789Y209712D01*
X161857Y209682D01*
X161921Y209644D01*
X162017Y209613D01*
X162109Y209574D01*
X162182Y209560D01*
X162253Y209538D01*
X162353Y209530D01*
X162452Y209512D01*
X162526Y209516D01*
X162600Y209510D01*
X162700Y209525D01*
X162800Y209530D01*
X162871Y209550D01*
X162945Y209561D01*
X163038Y209599D01*
X163135Y209626D01*
X163200Y209663D01*
X163269Y209690D01*
X163351Y209747D01*
X163439Y209797D01*
X163515Y209862D01*
X163555Y209889D01*
X163579Y209916D01*
X163625Y209955D01*
X181029Y227359D01*
X181108Y227458D01*
X181192Y227552D01*
X181216Y227594D01*
X181246Y227632D01*
X181300Y227746D01*
X181361Y227857D01*
X181374Y227904D01*
X181395Y227947D01*
X181421Y228071D01*
X181456Y228192D01*
X181461Y228253D01*
X181468Y228288D01*
X181467Y228336D01*
X181475Y228436D01*
X181475Y238932D01*
X182173Y239629D01*
X182205Y239670D01*
X182243Y239704D01*
X182313Y239805D01*
X182390Y239902D01*
X182412Y239949D01*
X182441Y239991D01*
X182486Y240106D01*
X182539Y240218D01*
X182549Y240267D01*
X182568Y240315D01*
X182586Y240437D01*
X182612Y240558D01*
X182611Y240609D01*
X182619Y240660D01*
X182608Y240783D01*
X182606Y240907D01*
X182594Y240956D01*
X182589Y241007D01*
X182551Y241125D01*
X182521Y241245D01*
X182498Y241290D01*
X182482Y241339D01*
X182418Y241445D01*
X182361Y241554D01*
X182328Y241593D01*
X182302Y241637D01*
X182216Y241726D01*
X182136Y241820D01*
X182095Y241850D01*
X182059Y241887D01*
X181934Y241973D01*
X181932Y241975D01*
X181930Y241976D01*
X181858Y242026D01*
X181440Y242267D01*
X180967Y242740D01*
X180632Y243319D01*
X180459Y243965D01*
X180459Y247753D01*
X188976Y247753D01*
X189002Y247756D01*
X189028Y247754D01*
X189175Y247776D01*
X189322Y247793D01*
X189347Y247801D01*
X189373Y247805D01*
X189511Y247860D01*
X189650Y247910D01*
X189672Y247924D01*
X189697Y247934D01*
X189818Y248019D01*
X189943Y248099D01*
X189961Y248118D01*
X189983Y248133D01*
X190082Y248243D01*
X190185Y248350D01*
X190199Y248372D01*
X190216Y248392D01*
X190288Y248522D01*
X190364Y248649D01*
X190372Y248674D01*
X190385Y248697D01*
X190425Y248840D01*
X190470Y248981D01*
X190472Y249007D01*
X190480Y249032D01*
X190499Y249276D01*
X190499Y250801D01*
X190501Y250801D01*
X190501Y249276D01*
X190504Y249250D01*
X190502Y249224D01*
X190524Y249077D01*
X190541Y248930D01*
X190550Y248905D01*
X190553Y248879D01*
X190608Y248741D01*
X190658Y248602D01*
X190672Y248580D01*
X190682Y248555D01*
X190767Y248434D01*
X190847Y248309D01*
X190866Y248291D01*
X190881Y248269D01*
X190991Y248170D01*
X191098Y248067D01*
X191120Y248053D01*
X191140Y248036D01*
X191270Y247964D01*
X191397Y247888D01*
X191422Y247880D01*
X191445Y247867D01*
X191588Y247827D01*
X191729Y247782D01*
X191755Y247780D01*
X191780Y247772D01*
X192024Y247753D01*
X200541Y247753D01*
X200541Y243965D01*
X200368Y243319D01*
X200033Y242740D01*
X199560Y242267D01*
X199142Y242026D01*
X199101Y241995D01*
X199056Y241972D01*
X198962Y241892D01*
X198862Y241818D01*
X198829Y241779D01*
X198791Y241746D01*
X198717Y241647D01*
X198637Y241552D01*
X198614Y241507D01*
X198583Y241466D01*
X198534Y241352D01*
X198478Y241242D01*
X198466Y241193D01*
X198445Y241146D01*
X198424Y241024D01*
X198394Y240904D01*
X198393Y240853D01*
X198384Y240803D01*
X198390Y240679D01*
X198388Y240556D01*
X198399Y240506D01*
X198402Y240455D01*
X198436Y240336D01*
X198462Y240215D01*
X198484Y240169D01*
X198498Y240120D01*
X198559Y240012D01*
X198612Y239900D01*
X198643Y239860D01*
X198668Y239816D01*
X198827Y239629D01*
X199525Y238932D01*
X199525Y231310D01*
X199539Y231184D01*
X199546Y231058D01*
X199559Y231012D01*
X199565Y230964D01*
X199607Y230845D01*
X199642Y230723D01*
X199666Y230681D01*
X199682Y230636D01*
X199751Y230529D01*
X199812Y230419D01*
X199852Y230373D01*
X199871Y230343D01*
X199906Y230309D01*
X199971Y230233D01*
X205669Y224535D01*
X205768Y224456D01*
X205862Y224372D01*
X205904Y224348D01*
X205942Y224318D01*
X206056Y224264D01*
X206167Y224203D01*
X206213Y224190D01*
X206257Y224169D01*
X206380Y224143D01*
X206502Y224108D01*
X206563Y224103D01*
X206598Y224096D01*
X206646Y224097D01*
X206746Y224089D01*
X213352Y224089D01*
X213378Y224092D01*
X213404Y224090D01*
X213551Y224112D01*
X213698Y224129D01*
X213723Y224137D01*
X213749Y224141D01*
X213887Y224196D01*
X214026Y224246D01*
X214048Y224260D01*
X214073Y224270D01*
X214194Y224355D01*
X214319Y224435D01*
X214337Y224454D01*
X214359Y224469D01*
X214458Y224579D01*
X214561Y224686D01*
X214575Y224708D01*
X214592Y224728D01*
X214664Y224858D01*
X214740Y224985D01*
X214748Y225010D01*
X214761Y225033D01*
X214801Y225176D01*
X214846Y225317D01*
X214848Y225343D01*
X214856Y225368D01*
X214875Y225612D01*
X214875Y227132D01*
X215768Y228025D01*
X247032Y228025D01*
X247925Y227132D01*
X247925Y210813D01*
X247939Y210687D01*
X247946Y210561D01*
X247959Y210514D01*
X247965Y210466D01*
X248007Y210347D01*
X248042Y210226D01*
X248066Y210184D01*
X248082Y210138D01*
X248151Y210032D01*
X248212Y209922D01*
X248252Y209875D01*
X248271Y209845D01*
X248306Y209812D01*
X248371Y209735D01*
X256726Y201380D01*
X257577Y199326D01*
X257577Y176474D01*
X256726Y174420D01*
X240080Y157774D01*
X238026Y156923D01*
X201048Y156923D01*
X201022Y156920D01*
X200996Y156922D01*
X200849Y156900D01*
X200702Y156883D01*
X200677Y156875D01*
X200651Y156871D01*
X200513Y156816D01*
X200374Y156766D01*
X200352Y156752D01*
X200327Y156742D01*
X200206Y156657D01*
X200081Y156577D01*
X200063Y156558D01*
X200041Y156543D01*
X199942Y156433D01*
X199839Y156326D01*
X199825Y156304D01*
X199808Y156284D01*
X199736Y156154D01*
X199660Y156027D01*
X199652Y156002D01*
X199639Y155979D01*
X199599Y155836D01*
X199554Y155695D01*
X199552Y155669D01*
X199544Y155644D01*
X199525Y155400D01*
X199525Y155110D01*
X199539Y154984D01*
X199546Y154858D01*
X199559Y154812D01*
X199565Y154764D01*
X199607Y154645D01*
X199642Y154523D01*
X199666Y154481D01*
X199682Y154436D01*
X199751Y154329D01*
X199812Y154219D01*
X199852Y154173D01*
X199871Y154143D01*
X199906Y154109D01*
X199971Y154033D01*
X208269Y145735D01*
X208368Y145656D01*
X208462Y145572D01*
X208504Y145548D01*
X208542Y145518D01*
X208656Y145464D01*
X208767Y145403D01*
X208813Y145390D01*
X208857Y145369D01*
X208980Y145343D01*
X209102Y145308D01*
X209163Y145303D01*
X209198Y145296D01*
X209246Y145297D01*
X209346Y145289D01*
X213352Y145289D01*
X213378Y145292D01*
X213404Y145290D01*
X213551Y145312D01*
X213698Y145329D01*
X213723Y145337D01*
X213749Y145341D01*
X213887Y145396D01*
X214026Y145446D01*
X214048Y145460D01*
X214073Y145470D01*
X214194Y145555D01*
X214319Y145635D01*
X214337Y145654D01*
X214359Y145669D01*
X214458Y145779D01*
X214561Y145886D01*
X214575Y145908D01*
X214592Y145928D01*
X214664Y146058D01*
X214740Y146185D01*
X214748Y146210D01*
X214761Y146233D01*
X214801Y146376D01*
X214846Y146517D01*
X214848Y146543D01*
X214856Y146568D01*
X214875Y146812D01*
X214875Y150932D01*
X215768Y151825D01*
X247032Y151825D01*
X247925Y150932D01*
X247925Y133668D01*
X247032Y132775D01*
X215768Y132775D01*
G37*
%LPD*%
%LPC*%
G36*
X448160Y140735D02*
X448160Y140735D01*
X436888Y145159D01*
X427421Y152709D01*
X420599Y162714D01*
X417030Y174285D01*
X417030Y186395D01*
X420599Y197966D01*
X427421Y207971D01*
X436888Y215521D01*
X448160Y219945D01*
X460236Y220850D01*
X472041Y218155D01*
X482528Y212101D01*
X490765Y203224D01*
X496019Y192314D01*
X497824Y180340D01*
X496019Y168366D01*
X490765Y157456D01*
X482528Y148579D01*
X472041Y142525D01*
X460236Y139830D01*
X448160Y140735D01*
G37*
%LPD*%
G36*
X116478Y395076D02*
X116478Y395076D01*
X116504Y395074D01*
X116651Y395096D01*
X116798Y395113D01*
X116823Y395121D01*
X116849Y395125D01*
X116987Y395180D01*
X117126Y395230D01*
X117148Y395244D01*
X117173Y395254D01*
X117294Y395339D01*
X117419Y395419D01*
X117437Y395438D01*
X117459Y395453D01*
X117558Y395563D01*
X117661Y395670D01*
X117675Y395692D01*
X117692Y395712D01*
X117764Y395841D01*
X117840Y395969D01*
X117848Y395994D01*
X117861Y396017D01*
X117901Y396160D01*
X117946Y396301D01*
X117948Y396327D01*
X117956Y396352D01*
X117975Y396596D01*
X117975Y397632D01*
X118868Y398525D01*
X129364Y398525D01*
X129489Y398539D01*
X129616Y398546D01*
X129662Y398559D01*
X129710Y398565D01*
X129829Y398607D01*
X129950Y398642D01*
X129993Y398666D01*
X130038Y398682D01*
X130144Y398751D01*
X130255Y398812D01*
X130301Y398852D01*
X130331Y398871D01*
X130364Y398906D01*
X130441Y398971D01*
X142809Y411339D01*
X142888Y411438D01*
X142972Y411532D01*
X142996Y411574D01*
X143026Y411612D01*
X143080Y411726D01*
X143141Y411837D01*
X143154Y411884D01*
X143175Y411927D01*
X143201Y412051D01*
X143236Y412172D01*
X143241Y412233D01*
X143248Y412268D01*
X143247Y412316D01*
X143255Y412416D01*
X143255Y413632D01*
X143252Y413658D01*
X143254Y413684D01*
X143232Y413831D01*
X143215Y413978D01*
X143207Y414003D01*
X143203Y414029D01*
X143148Y414167D01*
X143098Y414306D01*
X143084Y414328D01*
X143074Y414353D01*
X142989Y414474D01*
X142909Y414599D01*
X142890Y414617D01*
X142875Y414639D01*
X142765Y414738D01*
X142658Y414841D01*
X142636Y414855D01*
X142616Y414872D01*
X142487Y414944D01*
X142359Y415020D01*
X142334Y415028D01*
X142311Y415041D01*
X142168Y415081D01*
X142027Y415126D01*
X142001Y415128D01*
X141976Y415136D01*
X141732Y415155D01*
X129368Y415155D01*
X128671Y415853D01*
X128630Y415885D01*
X128596Y415923D01*
X128495Y415993D01*
X128398Y416070D01*
X128351Y416092D01*
X128309Y416121D01*
X128194Y416166D01*
X128082Y416219D01*
X128033Y416229D01*
X127985Y416248D01*
X127863Y416266D01*
X127742Y416292D01*
X127691Y416291D01*
X127640Y416299D01*
X127517Y416288D01*
X127393Y416286D01*
X127344Y416274D01*
X127293Y416269D01*
X127175Y416231D01*
X127055Y416201D01*
X127010Y416178D01*
X126961Y416162D01*
X126855Y416098D01*
X126746Y416041D01*
X126707Y416008D01*
X126663Y415982D01*
X126574Y415896D01*
X126480Y415816D01*
X126450Y415775D01*
X126413Y415739D01*
X126274Y415538D01*
X126033Y415120D01*
X125560Y414647D01*
X124981Y414312D01*
X124335Y414139D01*
X120547Y414139D01*
X120547Y422656D01*
X120544Y422682D01*
X120546Y422708D01*
X120524Y422855D01*
X120507Y423002D01*
X120498Y423027D01*
X120495Y423053D01*
X120440Y423191D01*
X120390Y423330D01*
X120376Y423352D01*
X120366Y423377D01*
X120281Y423498D01*
X120201Y423623D01*
X120182Y423641D01*
X120167Y423663D01*
X120057Y423762D01*
X119950Y423865D01*
X119928Y423879D01*
X119908Y423896D01*
X119778Y423968D01*
X119651Y424044D01*
X119626Y424052D01*
X119603Y424065D01*
X119460Y424105D01*
X119319Y424150D01*
X119293Y424152D01*
X119268Y424160D01*
X119024Y424179D01*
X117499Y424179D01*
X117499Y424181D01*
X119024Y424181D01*
X119050Y424184D01*
X119076Y424182D01*
X119223Y424204D01*
X119370Y424221D01*
X119395Y424230D01*
X119421Y424233D01*
X119559Y424288D01*
X119698Y424338D01*
X119720Y424352D01*
X119745Y424362D01*
X119866Y424447D01*
X119991Y424527D01*
X120009Y424546D01*
X120031Y424561D01*
X120130Y424671D01*
X120233Y424778D01*
X120247Y424800D01*
X120264Y424820D01*
X120336Y424950D01*
X120412Y425077D01*
X120420Y425102D01*
X120433Y425125D01*
X120473Y425268D01*
X120518Y425409D01*
X120520Y425435D01*
X120528Y425460D01*
X120547Y425704D01*
X120547Y434221D01*
X124335Y434221D01*
X124981Y434048D01*
X125560Y433713D01*
X126033Y433240D01*
X126274Y432822D01*
X126305Y432781D01*
X126328Y432736D01*
X126408Y432642D01*
X126482Y432542D01*
X126521Y432509D01*
X126554Y432471D01*
X126653Y432397D01*
X126748Y432317D01*
X126793Y432294D01*
X126834Y432263D01*
X126948Y432214D01*
X127058Y432158D01*
X127107Y432146D01*
X127154Y432125D01*
X127276Y432104D01*
X127396Y432074D01*
X127447Y432073D01*
X127497Y432064D01*
X127621Y432070D01*
X127744Y432068D01*
X127794Y432079D01*
X127845Y432082D01*
X127964Y432116D01*
X128085Y432142D01*
X128131Y432164D01*
X128180Y432178D01*
X128288Y432239D01*
X128400Y432292D01*
X128440Y432323D01*
X128484Y432348D01*
X128671Y432507D01*
X129368Y433205D01*
X129652Y433205D01*
X129678Y433208D01*
X129704Y433206D01*
X129851Y433228D01*
X129998Y433245D01*
X130023Y433253D01*
X130049Y433257D01*
X130187Y433312D01*
X130326Y433362D01*
X130348Y433376D01*
X130373Y433386D01*
X130494Y433471D01*
X130619Y433551D01*
X130637Y433570D01*
X130659Y433585D01*
X130758Y433695D01*
X130861Y433802D01*
X130875Y433824D01*
X130892Y433844D01*
X130964Y433974D01*
X131040Y434101D01*
X131048Y434126D01*
X131061Y434149D01*
X131101Y434292D01*
X131146Y434433D01*
X131148Y434459D01*
X131156Y434484D01*
X131175Y434728D01*
X131175Y442672D01*
X132068Y443565D01*
X147332Y443565D01*
X148225Y442672D01*
X148225Y439532D01*
X148236Y439432D01*
X148238Y439332D01*
X148256Y439260D01*
X148265Y439186D01*
X148298Y439091D01*
X148323Y438994D01*
X148357Y438928D01*
X148382Y438858D01*
X148437Y438773D01*
X148483Y438684D01*
X148531Y438627D01*
X148571Y438565D01*
X148643Y438495D01*
X148708Y438419D01*
X148768Y438375D01*
X148822Y438323D01*
X148908Y438271D01*
X148989Y438212D01*
X149057Y438182D01*
X149121Y438144D01*
X149217Y438113D01*
X149309Y438074D01*
X149382Y438060D01*
X149453Y438038D01*
X149553Y438030D01*
X149652Y438012D01*
X149726Y438016D01*
X149800Y438010D01*
X149900Y438025D01*
X150000Y438030D01*
X150071Y438050D01*
X150145Y438061D01*
X150238Y438099D01*
X150335Y438126D01*
X150400Y438163D01*
X150469Y438190D01*
X150551Y438247D01*
X150639Y438297D01*
X150715Y438362D01*
X150755Y438389D01*
X150779Y438416D01*
X150825Y438455D01*
X157197Y444827D01*
X158013Y445643D01*
X158075Y445722D01*
X158145Y445794D01*
X158183Y445858D01*
X158230Y445916D01*
X158273Y446007D01*
X158324Y446093D01*
X158347Y446164D01*
X158378Y446231D01*
X158400Y446329D01*
X158430Y446425D01*
X158436Y446499D01*
X158452Y446572D01*
X158450Y446672D01*
X158458Y446772D01*
X158447Y446846D01*
X158446Y446920D01*
X158421Y447017D01*
X158407Y447117D01*
X158379Y447186D01*
X158361Y447258D01*
X158315Y447347D01*
X158278Y447441D01*
X158235Y447502D01*
X158201Y447568D01*
X158136Y447645D01*
X158079Y447727D01*
X158024Y447777D01*
X157975Y447833D01*
X157895Y447893D01*
X157820Y447960D01*
X157755Y447996D01*
X157695Y448041D01*
X157603Y448080D01*
X157515Y448129D01*
X157443Y448149D01*
X157375Y448179D01*
X157276Y448196D01*
X157180Y448224D01*
X157080Y448232D01*
X157032Y448240D01*
X156996Y448238D01*
X156936Y448243D01*
X156327Y448243D01*
X150825Y453745D01*
X150747Y453807D01*
X150674Y453877D01*
X150610Y453915D01*
X150552Y453962D01*
X150461Y454004D01*
X150375Y454056D01*
X150304Y454079D01*
X150237Y454110D01*
X150139Y454132D01*
X150043Y454162D01*
X149969Y454168D01*
X149896Y454184D01*
X149796Y454182D01*
X149696Y454190D01*
X149622Y454179D01*
X149548Y454178D01*
X149451Y454153D01*
X149351Y454139D01*
X149282Y454111D01*
X149210Y454093D01*
X149120Y454047D01*
X149027Y454010D01*
X148966Y453967D01*
X148900Y453933D01*
X148823Y453868D01*
X148741Y453811D01*
X148691Y453756D01*
X148635Y453707D01*
X148575Y453627D01*
X148508Y453552D01*
X148472Y453487D01*
X148427Y453427D01*
X148388Y453335D01*
X148339Y453247D01*
X148319Y453175D01*
X148289Y453107D01*
X148272Y453008D01*
X148244Y452912D01*
X148236Y452812D01*
X148228Y452764D01*
X148230Y452728D01*
X148225Y452668D01*
X148225Y451408D01*
X147332Y450515D01*
X132068Y450515D01*
X131175Y451408D01*
X131175Y459352D01*
X131172Y459378D01*
X131174Y459404D01*
X131152Y459551D01*
X131135Y459698D01*
X131127Y459723D01*
X131123Y459749D01*
X131068Y459887D01*
X131018Y460026D01*
X131004Y460048D01*
X130994Y460073D01*
X130909Y460194D01*
X130829Y460319D01*
X130810Y460337D01*
X130795Y460359D01*
X130685Y460458D01*
X130578Y460561D01*
X130556Y460575D01*
X130536Y460592D01*
X130407Y460664D01*
X130279Y460740D01*
X130254Y460748D01*
X130231Y460761D01*
X130088Y460801D01*
X129947Y460846D01*
X129921Y460848D01*
X129896Y460856D01*
X129652Y460875D01*
X129368Y460875D01*
X128671Y461573D01*
X128630Y461605D01*
X128596Y461643D01*
X128495Y461713D01*
X128398Y461790D01*
X128351Y461812D01*
X128309Y461841D01*
X128194Y461886D01*
X128082Y461939D01*
X128033Y461949D01*
X127985Y461968D01*
X127863Y461986D01*
X127742Y462012D01*
X127691Y462011D01*
X127640Y462019D01*
X127517Y462008D01*
X127393Y462006D01*
X127344Y461994D01*
X127293Y461989D01*
X127175Y461951D01*
X127055Y461921D01*
X127010Y461898D01*
X126961Y461882D01*
X126855Y461818D01*
X126746Y461761D01*
X126707Y461728D01*
X126663Y461702D01*
X126574Y461616D01*
X126480Y461536D01*
X126450Y461495D01*
X126413Y461459D01*
X126274Y461258D01*
X126033Y460840D01*
X125560Y460367D01*
X124981Y460032D01*
X124335Y459859D01*
X120547Y459859D01*
X120547Y468376D01*
X120544Y468402D01*
X120546Y468428D01*
X120524Y468575D01*
X120507Y468722D01*
X120498Y468747D01*
X120495Y468773D01*
X120440Y468911D01*
X120390Y469050D01*
X120376Y469072D01*
X120366Y469097D01*
X120281Y469218D01*
X120201Y469343D01*
X120182Y469361D01*
X120167Y469383D01*
X120057Y469482D01*
X119950Y469585D01*
X119928Y469599D01*
X119908Y469616D01*
X119778Y469688D01*
X119651Y469764D01*
X119626Y469772D01*
X119603Y469785D01*
X119460Y469825D01*
X119319Y469870D01*
X119293Y469872D01*
X119268Y469880D01*
X119024Y469899D01*
X117499Y469899D01*
X117499Y469901D01*
X119024Y469901D01*
X119050Y469904D01*
X119076Y469902D01*
X119223Y469924D01*
X119370Y469941D01*
X119395Y469950D01*
X119421Y469953D01*
X119559Y470008D01*
X119698Y470058D01*
X119720Y470072D01*
X119745Y470082D01*
X119866Y470167D01*
X119991Y470247D01*
X120009Y470266D01*
X120031Y470281D01*
X120130Y470391D01*
X120233Y470498D01*
X120247Y470520D01*
X120264Y470540D01*
X120336Y470670D01*
X120412Y470797D01*
X120420Y470822D01*
X120433Y470845D01*
X120473Y470988D01*
X120518Y471129D01*
X120520Y471155D01*
X120528Y471180D01*
X120547Y471424D01*
X120547Y479941D01*
X124335Y479941D01*
X124981Y479768D01*
X125560Y479433D01*
X126033Y478960D01*
X126274Y478542D01*
X126305Y478501D01*
X126328Y478456D01*
X126408Y478362D01*
X126482Y478262D01*
X126521Y478229D01*
X126554Y478191D01*
X126653Y478117D01*
X126748Y478037D01*
X126793Y478014D01*
X126834Y477983D01*
X126948Y477934D01*
X127058Y477878D01*
X127107Y477866D01*
X127154Y477845D01*
X127276Y477824D01*
X127396Y477794D01*
X127447Y477793D01*
X127497Y477784D01*
X127621Y477790D01*
X127744Y477788D01*
X127794Y477799D01*
X127845Y477802D01*
X127964Y477836D01*
X128085Y477862D01*
X128131Y477884D01*
X128180Y477898D01*
X128288Y477959D01*
X128400Y478012D01*
X128440Y478043D01*
X128484Y478068D01*
X128671Y478227D01*
X129368Y478925D01*
X134965Y478925D01*
X135065Y478936D01*
X135165Y478938D01*
X135238Y478956D01*
X135311Y478965D01*
X135406Y478998D01*
X135503Y479023D01*
X135570Y479057D01*
X135640Y479082D01*
X135724Y479137D01*
X135813Y479183D01*
X135870Y479231D01*
X135932Y479271D01*
X136002Y479343D01*
X136079Y479408D01*
X136123Y479468D01*
X136175Y479522D01*
X136226Y479608D01*
X136286Y479689D01*
X136315Y479757D01*
X136353Y479821D01*
X136384Y479917D01*
X136424Y480009D01*
X136437Y480082D01*
X136460Y480153D01*
X136468Y480253D01*
X136485Y480352D01*
X136482Y480426D01*
X136488Y480500D01*
X136473Y480600D01*
X136467Y480700D01*
X136447Y480771D01*
X136436Y480845D01*
X136399Y480938D01*
X136371Y481035D01*
X136335Y481100D01*
X136307Y481169D01*
X136250Y481251D01*
X136201Y481339D01*
X136136Y481415D01*
X136108Y481455D01*
X136082Y481479D01*
X136042Y481525D01*
X131738Y485829D01*
X131639Y485908D01*
X131545Y485992D01*
X131503Y486016D01*
X131465Y486046D01*
X131351Y486100D01*
X131240Y486161D01*
X131194Y486174D01*
X131150Y486195D01*
X131027Y486221D01*
X130905Y486256D01*
X130844Y486261D01*
X130809Y486268D01*
X130761Y486267D01*
X130661Y486275D01*
X123068Y486275D01*
X122175Y487168D01*
X122175Y503432D01*
X123068Y504325D01*
X128927Y504325D01*
X129053Y504339D01*
X129179Y504346D01*
X129225Y504359D01*
X129273Y504365D01*
X129392Y504407D01*
X129514Y504442D01*
X129556Y504466D01*
X129601Y504482D01*
X129708Y504551D01*
X129818Y504612D01*
X129864Y504652D01*
X129894Y504671D01*
X129928Y504706D01*
X130004Y504771D01*
X148920Y523687D01*
X148982Y523765D01*
X149052Y523838D01*
X149091Y523902D01*
X149137Y523960D01*
X149180Y524051D01*
X149231Y524137D01*
X149254Y524208D01*
X149286Y524275D01*
X149307Y524373D01*
X149337Y524469D01*
X149343Y524543D01*
X149359Y524616D01*
X149357Y524716D01*
X149365Y524816D01*
X149354Y524890D01*
X149353Y524964D01*
X149329Y525061D01*
X149314Y525161D01*
X149286Y525230D01*
X149268Y525302D01*
X149222Y525392D01*
X149185Y525485D01*
X149143Y525546D01*
X149108Y525612D01*
X149043Y525689D01*
X148986Y525771D01*
X148931Y525821D01*
X148883Y525877D01*
X148802Y525937D01*
X148727Y526004D01*
X148662Y526040D01*
X148602Y526085D01*
X148510Y526124D01*
X148422Y526173D01*
X148351Y526193D01*
X148282Y526223D01*
X148184Y526240D01*
X148087Y526268D01*
X147987Y526276D01*
X147939Y526284D01*
X147904Y526282D01*
X147843Y526287D01*
X122419Y526287D01*
X122294Y526273D01*
X122167Y526266D01*
X122121Y526253D01*
X122073Y526247D01*
X121954Y526205D01*
X121833Y526170D01*
X121790Y526146D01*
X121745Y526130D01*
X121639Y526061D01*
X121528Y526000D01*
X121482Y525960D01*
X121452Y525941D01*
X121419Y525906D01*
X121342Y525841D01*
X91127Y495626D01*
X91048Y495527D01*
X90964Y495433D01*
X90940Y495391D01*
X90910Y495353D01*
X90856Y495239D01*
X90795Y495128D01*
X90782Y495081D01*
X90761Y495038D01*
X90735Y494914D01*
X90700Y494793D01*
X90695Y494732D01*
X90688Y494697D01*
X90689Y494649D01*
X90681Y494549D01*
X90681Y404611D01*
X90695Y404486D01*
X90702Y404359D01*
X90715Y404313D01*
X90721Y404265D01*
X90763Y404146D01*
X90798Y404025D01*
X90822Y403982D01*
X90838Y403937D01*
X90907Y403831D01*
X90968Y403720D01*
X91008Y403674D01*
X91027Y403644D01*
X91062Y403611D01*
X91127Y403534D01*
X99142Y395519D01*
X99241Y395440D01*
X99335Y395356D01*
X99377Y395332D01*
X99415Y395302D01*
X99529Y395248D01*
X99640Y395187D01*
X99687Y395174D01*
X99730Y395153D01*
X99854Y395127D01*
X99975Y395092D01*
X100036Y395087D01*
X100071Y395080D01*
X100119Y395081D01*
X100219Y395073D01*
X116452Y395073D01*
X116478Y395076D01*
G37*
G36*
X269278Y265797D02*
X269278Y265797D01*
X269352Y265798D01*
X269449Y265823D01*
X269549Y265838D01*
X269618Y265865D01*
X269690Y265883D01*
X269780Y265929D01*
X269873Y265967D01*
X269934Y266009D01*
X270000Y266043D01*
X270077Y266108D01*
X270159Y266165D01*
X270209Y266221D01*
X270265Y266269D01*
X270325Y266350D01*
X270392Y266424D01*
X270428Y266489D01*
X270473Y266549D01*
X270512Y266641D01*
X270561Y266729D01*
X270581Y266801D01*
X270611Y266869D01*
X270628Y266968D01*
X270656Y267065D01*
X270664Y267165D01*
X270672Y267212D01*
X270670Y267248D01*
X270675Y267308D01*
X270675Y270932D01*
X271568Y271825D01*
X306172Y271825D01*
X306271Y271836D01*
X306372Y271838D01*
X306444Y271856D01*
X306518Y271865D01*
X306612Y271898D01*
X306710Y271923D01*
X306776Y271957D01*
X306846Y271982D01*
X306930Y272037D01*
X307020Y272083D01*
X307076Y272131D01*
X307139Y272171D01*
X307208Y272243D01*
X307285Y272308D01*
X307329Y272368D01*
X307381Y272422D01*
X307432Y272508D01*
X307492Y272589D01*
X307522Y272657D01*
X307560Y272721D01*
X307590Y272817D01*
X307630Y272909D01*
X307643Y272982D01*
X307666Y273053D01*
X307674Y273153D01*
X307692Y273252D01*
X307688Y273326D01*
X307694Y273400D01*
X307679Y273500D01*
X307674Y273600D01*
X307653Y273671D01*
X307642Y273745D01*
X307605Y273838D01*
X307577Y273935D01*
X307541Y274000D01*
X307513Y274069D01*
X307456Y274151D01*
X307407Y274239D01*
X307342Y274315D01*
X307315Y274355D01*
X307288Y274379D01*
X307249Y274425D01*
X261914Y319760D01*
X261063Y321814D01*
X261063Y322192D01*
X261060Y322218D01*
X261062Y322244D01*
X261040Y322391D01*
X261023Y322538D01*
X261015Y322563D01*
X261011Y322589D01*
X260956Y322727D01*
X260906Y322866D01*
X260892Y322888D01*
X260882Y322913D01*
X260797Y323034D01*
X260717Y323159D01*
X260698Y323177D01*
X260683Y323199D01*
X260573Y323298D01*
X260466Y323401D01*
X260444Y323415D01*
X260424Y323432D01*
X260294Y323504D01*
X260167Y323580D01*
X260142Y323588D01*
X260119Y323601D01*
X259976Y323641D01*
X259835Y323686D01*
X259809Y323688D01*
X259784Y323696D01*
X259540Y323715D01*
X252608Y323715D01*
X251693Y324630D01*
X251681Y324673D01*
X251675Y324721D01*
X251633Y324840D01*
X251598Y324962D01*
X251574Y325004D01*
X251558Y325049D01*
X251489Y325155D01*
X251428Y325266D01*
X251388Y325312D01*
X251369Y325342D01*
X251334Y325376D01*
X251269Y325452D01*
X248488Y328233D01*
X243781Y332940D01*
X243703Y333002D01*
X243630Y333072D01*
X243566Y333110D01*
X243508Y333157D01*
X243417Y333200D01*
X243331Y333251D01*
X243260Y333274D01*
X243193Y333306D01*
X243095Y333327D01*
X242999Y333357D01*
X242925Y333363D01*
X242852Y333379D01*
X242752Y333377D01*
X242652Y333385D01*
X242578Y333374D01*
X242504Y333373D01*
X242407Y333348D01*
X242307Y333334D01*
X242238Y333306D01*
X242166Y333288D01*
X242076Y333242D01*
X241983Y333205D01*
X241922Y333162D01*
X241856Y333128D01*
X241779Y333063D01*
X241697Y333006D01*
X241647Y332951D01*
X241591Y332902D01*
X241531Y332822D01*
X241464Y332747D01*
X241428Y332682D01*
X241383Y332622D01*
X241344Y332530D01*
X241295Y332442D01*
X241275Y332370D01*
X241245Y332302D01*
X241228Y332203D01*
X241200Y332107D01*
X241192Y332007D01*
X241184Y331959D01*
X241186Y331923D01*
X241181Y331863D01*
X241181Y330047D01*
X234187Y330047D01*
X234187Y336041D01*
X237003Y336041D01*
X237103Y336052D01*
X237203Y336054D01*
X237275Y336072D01*
X237349Y336081D01*
X237444Y336114D01*
X237541Y336139D01*
X237607Y336173D01*
X237677Y336198D01*
X237762Y336253D01*
X237851Y336299D01*
X237908Y336347D01*
X237970Y336387D01*
X238040Y336459D01*
X238116Y336524D01*
X238161Y336584D01*
X238212Y336638D01*
X238264Y336724D01*
X238323Y336805D01*
X238353Y336873D01*
X238391Y336937D01*
X238422Y337033D01*
X238461Y337125D01*
X238475Y337198D01*
X238497Y337269D01*
X238505Y337369D01*
X238523Y337468D01*
X238519Y337542D01*
X238525Y337616D01*
X238510Y337716D01*
X238505Y337816D01*
X238485Y337887D01*
X238474Y337961D01*
X238436Y338054D01*
X238409Y338151D01*
X238372Y338216D01*
X238345Y338285D01*
X238288Y338367D01*
X238239Y338455D01*
X238173Y338531D01*
X238146Y338571D01*
X238119Y338595D01*
X238080Y338641D01*
X236976Y339746D01*
X236858Y339839D01*
X236742Y339937D01*
X236721Y339948D01*
X236703Y339962D01*
X236566Y340026D01*
X236432Y340095D01*
X236409Y340101D01*
X236387Y340111D01*
X236241Y340143D01*
X236093Y340179D01*
X236070Y340179D01*
X236047Y340184D01*
X235896Y340182D01*
X235745Y340184D01*
X235717Y340179D01*
X235698Y340178D01*
X235653Y340167D01*
X235504Y340140D01*
X235055Y340019D01*
X234493Y340019D01*
X234493Y345060D01*
X234490Y345086D01*
X234492Y345112D01*
X234470Y345259D01*
X234454Y345406D01*
X234445Y345431D01*
X234441Y345457D01*
X234386Y345594D01*
X234336Y345734D01*
X234322Y345756D01*
X234312Y345780D01*
X234228Y345902D01*
X234147Y346027D01*
X234128Y346045D01*
X234113Y346067D01*
X234003Y346166D01*
X233896Y346269D01*
X233874Y346282D01*
X233854Y346300D01*
X233724Y346372D01*
X233597Y346448D01*
X233572Y346456D01*
X233549Y346469D01*
X233406Y346509D01*
X233265Y346554D01*
X233239Y346556D01*
X233214Y346563D01*
X232970Y346583D01*
X232944Y346580D01*
X232918Y346582D01*
X232771Y346560D01*
X232624Y346543D01*
X232599Y346534D01*
X232573Y346530D01*
X232435Y346476D01*
X232296Y346426D01*
X232273Y346411D01*
X232249Y346402D01*
X232128Y346317D01*
X232003Y346237D01*
X231984Y346218D01*
X231963Y346203D01*
X231864Y346093D01*
X231761Y345986D01*
X231747Y345963D01*
X231729Y345944D01*
X231658Y345814D01*
X231582Y345687D01*
X231574Y345662D01*
X231561Y345639D01*
X231521Y345496D01*
X231475Y345355D01*
X231473Y345329D01*
X231466Y345303D01*
X231447Y345060D01*
X231447Y340019D01*
X230885Y340019D01*
X230239Y340192D01*
X229660Y340527D01*
X229598Y340589D01*
X229499Y340668D01*
X229405Y340752D01*
X229363Y340776D01*
X229325Y340806D01*
X229211Y340860D01*
X229100Y340921D01*
X229053Y340934D01*
X229010Y340955D01*
X228886Y340981D01*
X228764Y341016D01*
X228704Y341021D01*
X228669Y341028D01*
X228621Y341027D01*
X228521Y341035D01*
X228106Y341035D01*
X227981Y341021D01*
X227854Y341014D01*
X227808Y341001D01*
X227760Y340995D01*
X227641Y340953D01*
X227520Y340918D01*
X227477Y340894D01*
X227432Y340878D01*
X227326Y340809D01*
X227215Y340748D01*
X227169Y340708D01*
X227139Y340689D01*
X227106Y340654D01*
X227029Y340589D01*
X225081Y338641D01*
X225019Y338563D01*
X224949Y338490D01*
X224911Y338426D01*
X224864Y338368D01*
X224822Y338277D01*
X224770Y338191D01*
X224747Y338120D01*
X224716Y338053D01*
X224694Y337955D01*
X224664Y337859D01*
X224658Y337785D01*
X224642Y337712D01*
X224644Y337612D01*
X224636Y337512D01*
X224647Y337438D01*
X224648Y337364D01*
X224673Y337267D01*
X224687Y337167D01*
X224715Y337098D01*
X224733Y337026D01*
X224779Y336936D01*
X224816Y336843D01*
X224859Y336782D01*
X224893Y336716D01*
X224958Y336639D01*
X225015Y336557D01*
X225070Y336507D01*
X225119Y336451D01*
X225199Y336391D01*
X225274Y336324D01*
X225339Y336288D01*
X225399Y336243D01*
X225491Y336204D01*
X225579Y336155D01*
X225651Y336135D01*
X225719Y336105D01*
X225818Y336088D01*
X225914Y336060D01*
X226014Y336052D01*
X226062Y336044D01*
X226098Y336046D01*
X226158Y336041D01*
X228093Y336041D01*
X228093Y328524D01*
X228096Y328498D01*
X228094Y328472D01*
X228116Y328325D01*
X228133Y328178D01*
X228141Y328153D01*
X228145Y328127D01*
X228200Y327989D01*
X228250Y327850D01*
X228264Y327828D01*
X228274Y327803D01*
X228359Y327682D01*
X228439Y327557D01*
X228458Y327539D01*
X228473Y327517D01*
X228583Y327418D01*
X228690Y327315D01*
X228712Y327301D01*
X228732Y327284D01*
X228862Y327212D01*
X228989Y327136D01*
X229014Y327128D01*
X229037Y327115D01*
X229180Y327075D01*
X229321Y327030D01*
X229347Y327028D01*
X229372Y327020D01*
X229616Y327001D01*
X231141Y327001D01*
X231141Y325476D01*
X231144Y325450D01*
X231142Y325424D01*
X231164Y325277D01*
X231181Y325130D01*
X231190Y325105D01*
X231193Y325079D01*
X231248Y324941D01*
X231298Y324802D01*
X231312Y324780D01*
X231322Y324755D01*
X231407Y324634D01*
X231487Y324509D01*
X231506Y324491D01*
X231521Y324469D01*
X231631Y324370D01*
X231738Y324267D01*
X231760Y324253D01*
X231780Y324236D01*
X231910Y324164D01*
X232037Y324088D01*
X232062Y324080D01*
X232085Y324067D01*
X232228Y324027D01*
X232369Y323982D01*
X232395Y323980D01*
X232420Y323972D01*
X232664Y323953D01*
X241181Y323953D01*
X241181Y320165D01*
X241008Y319519D01*
X240673Y318940D01*
X240200Y318467D01*
X239782Y318226D01*
X239741Y318195D01*
X239696Y318172D01*
X239602Y318092D01*
X239502Y318018D01*
X239469Y317979D01*
X239431Y317946D01*
X239357Y317847D01*
X239277Y317752D01*
X239254Y317707D01*
X239223Y317666D01*
X239174Y317552D01*
X239118Y317442D01*
X239106Y317393D01*
X239085Y317346D01*
X239064Y317224D01*
X239034Y317104D01*
X239033Y317053D01*
X239024Y317003D01*
X239030Y316879D01*
X239028Y316756D01*
X239039Y316706D01*
X239042Y316655D01*
X239076Y316536D01*
X239082Y316509D01*
X239083Y316500D01*
X239084Y316496D01*
X239102Y316415D01*
X239124Y316369D01*
X239138Y316320D01*
X239195Y316218D01*
X239212Y316176D01*
X239224Y316159D01*
X239252Y316100D01*
X239283Y316060D01*
X239308Y316016D01*
X239390Y315920D01*
X239411Y315890D01*
X239431Y315872D01*
X239467Y315829D01*
X240165Y315132D01*
X240165Y300868D01*
X239272Y299975D01*
X238252Y299975D01*
X238226Y299972D01*
X238200Y299974D01*
X238053Y299952D01*
X237906Y299935D01*
X237881Y299927D01*
X237855Y299923D01*
X237717Y299868D01*
X237578Y299818D01*
X237556Y299804D01*
X237531Y299794D01*
X237410Y299709D01*
X237285Y299629D01*
X237267Y299610D01*
X237245Y299595D01*
X237146Y299485D01*
X237043Y299378D01*
X237029Y299356D01*
X237012Y299336D01*
X236940Y299206D01*
X236864Y299079D01*
X236856Y299054D01*
X236843Y299031D01*
X236803Y298888D01*
X236758Y298747D01*
X236756Y298721D01*
X236748Y298696D01*
X236729Y298452D01*
X236729Y298209D01*
X236743Y298083D01*
X236750Y297957D01*
X236763Y297910D01*
X236769Y297862D01*
X236811Y297743D01*
X236846Y297622D01*
X236870Y297580D01*
X236886Y297534D01*
X236955Y297428D01*
X237016Y297318D01*
X237056Y297272D01*
X237075Y297241D01*
X237110Y297208D01*
X237175Y297131D01*
X268075Y266231D01*
X268153Y266169D01*
X268226Y266099D01*
X268290Y266061D01*
X268348Y266015D01*
X268439Y265972D01*
X268525Y265920D01*
X268596Y265898D01*
X268663Y265866D01*
X268761Y265845D01*
X268857Y265814D01*
X268931Y265808D01*
X269004Y265792D01*
X269104Y265794D01*
X269204Y265786D01*
X269278Y265797D01*
G37*
G36*
X281578Y389792D02*
X281578Y389792D01*
X281604Y389790D01*
X281751Y389812D01*
X281898Y389829D01*
X281923Y389837D01*
X281949Y389841D01*
X282087Y389896D01*
X282226Y389946D01*
X282248Y389960D01*
X282273Y389970D01*
X282394Y390055D01*
X282519Y390135D01*
X282537Y390154D01*
X282559Y390169D01*
X282658Y390279D01*
X282761Y390386D01*
X282775Y390408D01*
X282792Y390428D01*
X282864Y390558D01*
X282940Y390685D01*
X282948Y390710D01*
X282961Y390733D01*
X283001Y390876D01*
X283046Y391017D01*
X283048Y391043D01*
X283056Y391068D01*
X283075Y391312D01*
X283075Y391332D01*
X283773Y392029D01*
X283805Y392070D01*
X283843Y392104D01*
X283913Y392205D01*
X283990Y392302D01*
X284012Y392349D01*
X284041Y392391D01*
X284086Y392506D01*
X284139Y392618D01*
X284149Y392667D01*
X284168Y392715D01*
X284186Y392837D01*
X284212Y392958D01*
X284211Y393009D01*
X284219Y393060D01*
X284208Y393183D01*
X284206Y393307D01*
X284194Y393356D01*
X284189Y393407D01*
X284151Y393525D01*
X284121Y393645D01*
X284098Y393690D01*
X284082Y393739D01*
X284018Y393845D01*
X283961Y393954D01*
X283928Y393993D01*
X283902Y394037D01*
X283816Y394126D01*
X283736Y394220D01*
X283695Y394250D01*
X283659Y394287D01*
X283458Y394426D01*
X283040Y394667D01*
X282567Y395140D01*
X282232Y395719D01*
X282059Y396365D01*
X282059Y400153D01*
X290576Y400153D01*
X290602Y400156D01*
X290628Y400154D01*
X290775Y400176D01*
X290922Y400193D01*
X290947Y400201D01*
X290973Y400205D01*
X291111Y400260D01*
X291250Y400310D01*
X291272Y400324D01*
X291297Y400334D01*
X291418Y400419D01*
X291543Y400499D01*
X291561Y400518D01*
X291583Y400533D01*
X291682Y400643D01*
X291785Y400750D01*
X291799Y400772D01*
X291816Y400792D01*
X291888Y400922D01*
X291964Y401049D01*
X291972Y401074D01*
X291985Y401097D01*
X292025Y401240D01*
X292070Y401381D01*
X292072Y401407D01*
X292080Y401432D01*
X292099Y401676D01*
X292099Y403201D01*
X292101Y403201D01*
X292101Y401676D01*
X292104Y401650D01*
X292102Y401624D01*
X292124Y401477D01*
X292141Y401330D01*
X292150Y401305D01*
X292153Y401279D01*
X292208Y401141D01*
X292258Y401002D01*
X292272Y400980D01*
X292282Y400955D01*
X292367Y400834D01*
X292447Y400709D01*
X292466Y400691D01*
X292481Y400669D01*
X292591Y400570D01*
X292698Y400467D01*
X292720Y400453D01*
X292740Y400436D01*
X292870Y400364D01*
X292997Y400288D01*
X293022Y400280D01*
X293045Y400267D01*
X293188Y400227D01*
X293329Y400182D01*
X293355Y400180D01*
X293380Y400172D01*
X293624Y400153D01*
X302141Y400153D01*
X302141Y396365D01*
X301968Y395719D01*
X301633Y395140D01*
X301160Y394667D01*
X300742Y394426D01*
X300701Y394395D01*
X300656Y394372D01*
X300562Y394292D01*
X300462Y394218D01*
X300429Y394179D01*
X300391Y394146D01*
X300317Y394047D01*
X300237Y393952D01*
X300214Y393907D01*
X300183Y393866D01*
X300134Y393752D01*
X300078Y393642D01*
X300066Y393593D01*
X300045Y393546D01*
X300024Y393424D01*
X299994Y393304D01*
X299993Y393253D01*
X299984Y393203D01*
X299990Y393079D01*
X299988Y392956D01*
X299999Y392906D01*
X300002Y392855D01*
X300036Y392736D01*
X300062Y392615D01*
X300084Y392569D01*
X300098Y392520D01*
X300159Y392412D01*
X300212Y392300D01*
X300243Y392260D01*
X300268Y392216D01*
X300427Y392029D01*
X301125Y391332D01*
X301125Y391312D01*
X301128Y391286D01*
X301126Y391260D01*
X301148Y391113D01*
X301165Y390966D01*
X301173Y390941D01*
X301177Y390915D01*
X301232Y390777D01*
X301282Y390638D01*
X301296Y390616D01*
X301306Y390591D01*
X301391Y390470D01*
X301471Y390345D01*
X301490Y390327D01*
X301505Y390305D01*
X301615Y390206D01*
X301722Y390103D01*
X301744Y390089D01*
X301764Y390072D01*
X301894Y390000D01*
X302021Y389924D01*
X302046Y389916D01*
X302069Y389903D01*
X302212Y389863D01*
X302353Y389818D01*
X302379Y389816D01*
X302404Y389808D01*
X302648Y389789D01*
X319652Y389789D01*
X319678Y389792D01*
X319704Y389790D01*
X319851Y389812D01*
X319998Y389829D01*
X320023Y389837D01*
X320049Y389841D01*
X320187Y389896D01*
X320326Y389946D01*
X320348Y389960D01*
X320373Y389970D01*
X320494Y390055D01*
X320619Y390135D01*
X320637Y390154D01*
X320659Y390169D01*
X320758Y390279D01*
X320861Y390386D01*
X320875Y390408D01*
X320892Y390428D01*
X320964Y390558D01*
X321040Y390685D01*
X321048Y390710D01*
X321061Y390733D01*
X321101Y390876D01*
X321146Y391017D01*
X321148Y391043D01*
X321156Y391068D01*
X321175Y391312D01*
X321175Y391332D01*
X321873Y392029D01*
X321905Y392070D01*
X321943Y392104D01*
X322013Y392205D01*
X322090Y392302D01*
X322112Y392349D01*
X322141Y392391D01*
X322186Y392506D01*
X322239Y392618D01*
X322249Y392667D01*
X322268Y392715D01*
X322286Y392837D01*
X322312Y392958D01*
X322311Y393009D01*
X322319Y393060D01*
X322308Y393183D01*
X322306Y393307D01*
X322294Y393356D01*
X322289Y393407D01*
X322251Y393525D01*
X322221Y393645D01*
X322198Y393690D01*
X322182Y393739D01*
X322118Y393845D01*
X322061Y393954D01*
X322028Y393993D01*
X322002Y394037D01*
X321916Y394126D01*
X321836Y394220D01*
X321795Y394250D01*
X321759Y394287D01*
X321558Y394426D01*
X321140Y394667D01*
X320667Y395140D01*
X320332Y395719D01*
X320159Y396365D01*
X320159Y400153D01*
X328676Y400153D01*
X328702Y400156D01*
X328728Y400154D01*
X328875Y400176D01*
X329022Y400193D01*
X329047Y400201D01*
X329073Y400205D01*
X329211Y400260D01*
X329350Y400310D01*
X329372Y400324D01*
X329397Y400334D01*
X329518Y400419D01*
X329643Y400499D01*
X329661Y400518D01*
X329683Y400533D01*
X329782Y400643D01*
X329885Y400750D01*
X329899Y400772D01*
X329916Y400792D01*
X329988Y400922D01*
X330064Y401049D01*
X330072Y401074D01*
X330085Y401097D01*
X330125Y401240D01*
X330170Y401381D01*
X330172Y401407D01*
X330180Y401432D01*
X330199Y401676D01*
X330199Y403201D01*
X331724Y403201D01*
X331750Y403204D01*
X331776Y403202D01*
X331923Y403224D01*
X332070Y403241D01*
X332095Y403250D01*
X332121Y403253D01*
X332259Y403308D01*
X332398Y403358D01*
X332420Y403372D01*
X332445Y403382D01*
X332566Y403467D01*
X332691Y403547D01*
X332709Y403566D01*
X332731Y403581D01*
X332830Y403691D01*
X332933Y403798D01*
X332947Y403820D01*
X332964Y403840D01*
X333036Y403970D01*
X333112Y404097D01*
X333120Y404122D01*
X333133Y404145D01*
X333173Y404288D01*
X333218Y404429D01*
X333220Y404455D01*
X333228Y404480D01*
X333247Y404724D01*
X333247Y412241D01*
X337820Y412241D01*
X337846Y412244D01*
X337872Y412242D01*
X338019Y412264D01*
X338166Y412281D01*
X338191Y412289D01*
X338217Y412293D01*
X338355Y412348D01*
X338494Y412398D01*
X338516Y412412D01*
X338541Y412422D01*
X338662Y412507D01*
X338787Y412587D01*
X338805Y412606D01*
X338827Y412621D01*
X338926Y412731D01*
X339029Y412838D01*
X339043Y412860D01*
X339060Y412880D01*
X339132Y413010D01*
X339208Y413137D01*
X339216Y413162D01*
X339229Y413185D01*
X339269Y413328D01*
X339314Y413469D01*
X339316Y413495D01*
X339324Y413520D01*
X339343Y413764D01*
X339343Y451621D01*
X339332Y451721D01*
X339330Y451821D01*
X339312Y451893D01*
X339303Y451967D01*
X339270Y452061D01*
X339245Y452159D01*
X339211Y452225D01*
X339186Y452295D01*
X339131Y452379D01*
X339085Y452469D01*
X339037Y452525D01*
X338997Y452588D01*
X338925Y452658D01*
X338860Y452734D01*
X338800Y452778D01*
X338746Y452830D01*
X338660Y452882D01*
X338579Y452941D01*
X338511Y452971D01*
X338447Y453009D01*
X338351Y453039D01*
X338259Y453079D01*
X338186Y453092D01*
X338115Y453115D01*
X338015Y453123D01*
X337916Y453141D01*
X337842Y453137D01*
X337768Y453143D01*
X337668Y453128D01*
X337568Y453123D01*
X337497Y453102D01*
X337423Y453091D01*
X337330Y453054D01*
X337233Y453026D01*
X337168Y452990D01*
X337099Y452963D01*
X337017Y452905D01*
X336929Y452856D01*
X336853Y452791D01*
X336813Y452764D01*
X336789Y452737D01*
X336743Y452698D01*
X300288Y416243D01*
X268703Y416243D01*
X268677Y416240D01*
X268651Y416242D01*
X268504Y416220D01*
X268357Y416203D01*
X268332Y416195D01*
X268306Y416191D01*
X268168Y416136D01*
X268029Y416086D01*
X268007Y416072D01*
X267982Y416062D01*
X267861Y415977D01*
X267736Y415897D01*
X267718Y415878D01*
X267696Y415863D01*
X267597Y415753D01*
X267494Y415646D01*
X267480Y415624D01*
X267463Y415604D01*
X267391Y415474D01*
X267315Y415347D01*
X267307Y415322D01*
X267294Y415299D01*
X267254Y415156D01*
X267209Y415015D01*
X267207Y414989D01*
X267199Y414964D01*
X267180Y414720D01*
X267180Y403435D01*
X267194Y403309D01*
X267201Y403183D01*
X267214Y403137D01*
X267220Y403089D01*
X267262Y402970D01*
X267297Y402848D01*
X267321Y402806D01*
X267337Y402761D01*
X267406Y402654D01*
X267467Y402544D01*
X267507Y402498D01*
X267526Y402468D01*
X267561Y402434D01*
X267626Y402358D01*
X279749Y390235D01*
X279848Y390156D01*
X279942Y390072D01*
X279984Y390048D01*
X280022Y390018D01*
X280136Y389964D01*
X280247Y389903D01*
X280293Y389890D01*
X280337Y389869D01*
X280460Y389843D01*
X280582Y389808D01*
X280643Y389803D01*
X280678Y389796D01*
X280726Y389797D01*
X280826Y389789D01*
X281552Y389789D01*
X281578Y389792D01*
G37*
%LPC*%
G36*
X189423Y464264D02*
X189423Y464264D01*
X189423Y474180D01*
X189420Y474206D01*
X189422Y474232D01*
X189400Y474379D01*
X189384Y474526D01*
X189375Y474551D01*
X189371Y474577D01*
X189316Y474714D01*
X189266Y474854D01*
X189252Y474876D01*
X189242Y474900D01*
X189158Y475022D01*
X189077Y475147D01*
X189058Y475165D01*
X189043Y475187D01*
X188933Y475286D01*
X188826Y475389D01*
X188803Y475403D01*
X188784Y475420D01*
X188654Y475492D01*
X188527Y475568D01*
X188502Y475576D01*
X188479Y475589D01*
X188336Y475629D01*
X188195Y475675D01*
X188169Y475677D01*
X188143Y475684D01*
X187900Y475703D01*
X182359Y475703D01*
X182359Y481890D01*
X182532Y482536D01*
X182867Y483115D01*
X183375Y483623D01*
X183407Y483647D01*
X183531Y483733D01*
X183547Y483750D01*
X183566Y483764D01*
X183663Y483880D01*
X183764Y483992D01*
X183776Y484012D01*
X183791Y484030D01*
X183860Y484165D01*
X183933Y484297D01*
X183939Y484319D01*
X183950Y484340D01*
X183986Y484487D01*
X184028Y484632D01*
X184030Y484660D01*
X184034Y484678D01*
X184035Y484725D01*
X184047Y484876D01*
X184047Y493776D01*
X184044Y493802D01*
X184046Y493828D01*
X184024Y493975D01*
X184007Y494122D01*
X183998Y494147D01*
X183995Y494173D01*
X183940Y494311D01*
X183890Y494450D01*
X183876Y494472D01*
X183866Y494497D01*
X183781Y494618D01*
X183701Y494743D01*
X183682Y494761D01*
X183667Y494783D01*
X183557Y494882D01*
X183450Y494985D01*
X183428Y494999D01*
X183408Y495016D01*
X183278Y495088D01*
X183151Y495164D01*
X183126Y495172D01*
X183103Y495185D01*
X182960Y495225D01*
X182819Y495270D01*
X182793Y495272D01*
X182768Y495280D01*
X182524Y495299D01*
X180999Y495299D01*
X180999Y495301D01*
X182524Y495301D01*
X182550Y495304D01*
X182576Y495302D01*
X182723Y495324D01*
X182870Y495341D01*
X182895Y495350D01*
X182921Y495353D01*
X183059Y495408D01*
X183198Y495458D01*
X183220Y495472D01*
X183245Y495482D01*
X183366Y495567D01*
X183491Y495647D01*
X183509Y495666D01*
X183531Y495681D01*
X183630Y495791D01*
X183733Y495898D01*
X183747Y495920D01*
X183764Y495940D01*
X183836Y496070D01*
X183912Y496197D01*
X183920Y496222D01*
X183933Y496245D01*
X183973Y496388D01*
X184018Y496529D01*
X184020Y496555D01*
X184028Y496580D01*
X184047Y496824D01*
X184047Y505341D01*
X187835Y505341D01*
X188481Y505168D01*
X189060Y504833D01*
X189533Y504360D01*
X189774Y503942D01*
X189805Y503901D01*
X189828Y503856D01*
X189908Y503762D01*
X189982Y503662D01*
X190021Y503629D01*
X190054Y503591D01*
X190153Y503517D01*
X190248Y503437D01*
X190293Y503414D01*
X190334Y503383D01*
X190448Y503334D01*
X190558Y503278D01*
X190607Y503266D01*
X190654Y503245D01*
X190776Y503224D01*
X190896Y503194D01*
X190947Y503193D01*
X190997Y503184D01*
X191121Y503190D01*
X191244Y503188D01*
X191294Y503199D01*
X191345Y503202D01*
X191464Y503236D01*
X191585Y503262D01*
X191631Y503284D01*
X191680Y503298D01*
X191788Y503359D01*
X191900Y503412D01*
X191940Y503443D01*
X191984Y503468D01*
X192171Y503627D01*
X192868Y504325D01*
X207132Y504325D01*
X208025Y503432D01*
X208025Y487168D01*
X207132Y486275D01*
X201996Y486275D01*
X201970Y486272D01*
X201944Y486274D01*
X201797Y486252D01*
X201650Y486235D01*
X201625Y486227D01*
X201599Y486223D01*
X201461Y486168D01*
X201322Y486118D01*
X201300Y486104D01*
X201275Y486094D01*
X201154Y486009D01*
X201029Y485929D01*
X201011Y485910D01*
X200989Y485895D01*
X200890Y485785D01*
X200787Y485678D01*
X200773Y485656D01*
X200756Y485636D01*
X200684Y485506D01*
X200608Y485379D01*
X200600Y485354D01*
X200587Y485331D01*
X200547Y485188D01*
X200502Y485047D01*
X200500Y485021D01*
X200492Y484996D01*
X200473Y484752D01*
X200473Y484603D01*
X200476Y484577D01*
X200474Y484551D01*
X200496Y484404D01*
X200513Y484257D01*
X200521Y484232D01*
X200525Y484206D01*
X200580Y484068D01*
X200630Y483929D01*
X200644Y483907D01*
X200654Y483882D01*
X200739Y483761D01*
X200819Y483636D01*
X200838Y483618D01*
X200853Y483596D01*
X200963Y483497D01*
X201070Y483394D01*
X201092Y483380D01*
X201112Y483363D01*
X201242Y483291D01*
X201369Y483215D01*
X201394Y483207D01*
X201417Y483194D01*
X201560Y483154D01*
X201701Y483109D01*
X201727Y483107D01*
X201752Y483099D01*
X201996Y483080D01*
X247532Y483080D01*
X248425Y482187D01*
X248425Y465848D01*
X248428Y465822D01*
X248426Y465796D01*
X248448Y465649D01*
X248465Y465502D01*
X248473Y465477D01*
X248477Y465451D01*
X248532Y465313D01*
X248582Y465174D01*
X248596Y465152D01*
X248606Y465127D01*
X248668Y465038D01*
X248611Y465069D01*
X248484Y465145D01*
X248459Y465153D01*
X248436Y465166D01*
X248293Y465206D01*
X248152Y465251D01*
X248126Y465253D01*
X248101Y465261D01*
X247857Y465280D01*
X193599Y465280D01*
X193474Y465266D01*
X193348Y465259D01*
X193301Y465246D01*
X193253Y465240D01*
X193134Y465198D01*
X193013Y465163D01*
X192971Y465139D01*
X192925Y465123D01*
X192819Y465054D01*
X192709Y464993D01*
X192662Y464953D01*
X192632Y464934D01*
X192599Y464899D01*
X192522Y464834D01*
X192460Y464772D01*
X191881Y464437D01*
X191235Y464264D01*
X189423Y464264D01*
G37*
%LPD*%
%LPC*%
G36*
X135368Y159875D02*
X135368Y159875D01*
X134475Y160768D01*
X134475Y187032D01*
X135368Y187925D01*
X158632Y187925D01*
X159525Y187032D01*
X159525Y160768D01*
X158632Y159875D01*
X135368Y159875D01*
G37*
%LPD*%
%LPC*%
G36*
X135368Y243875D02*
X135368Y243875D01*
X134475Y244768D01*
X134475Y271032D01*
X135368Y271925D01*
X158632Y271925D01*
X159525Y271032D01*
X159525Y244768D01*
X158632Y243875D01*
X135368Y243875D01*
G37*
%LPD*%
G36*
X216240Y340355D02*
X216240Y340355D01*
X216340Y340360D01*
X216411Y340380D01*
X216485Y340391D01*
X216578Y340429D01*
X216675Y340456D01*
X216740Y340493D01*
X216809Y340520D01*
X216891Y340577D01*
X216979Y340627D01*
X217055Y340692D01*
X217095Y340719D01*
X217119Y340746D01*
X217165Y340785D01*
X222749Y346369D01*
X222828Y346468D01*
X222912Y346562D01*
X222936Y346604D01*
X222966Y346642D01*
X223020Y346756D01*
X223081Y346867D01*
X223094Y346914D01*
X223115Y346957D01*
X223141Y347081D01*
X223176Y347202D01*
X223181Y347263D01*
X223188Y347298D01*
X223187Y347346D01*
X223195Y347446D01*
X223195Y348192D01*
X224088Y349085D01*
X228521Y349085D01*
X228646Y349099D01*
X228772Y349106D01*
X228819Y349119D01*
X228867Y349125D01*
X228986Y349167D01*
X229107Y349202D01*
X229149Y349226D01*
X229195Y349242D01*
X229301Y349311D01*
X229411Y349372D01*
X229458Y349412D01*
X229488Y349431D01*
X229521Y349466D01*
X229598Y349531D01*
X229660Y349593D01*
X229859Y349708D01*
X229900Y349738D01*
X229946Y349762D01*
X230040Y349842D01*
X230139Y349916D01*
X230172Y349955D01*
X230211Y349988D01*
X230284Y350087D01*
X230364Y350182D01*
X230388Y350227D01*
X230418Y350268D01*
X230467Y350382D01*
X230523Y350492D01*
X230536Y350541D01*
X230556Y350588D01*
X230578Y350710D01*
X230608Y350830D01*
X230609Y350881D01*
X230618Y350931D01*
X230611Y351055D01*
X230613Y351178D01*
X230602Y351228D01*
X230600Y351279D01*
X230566Y351398D01*
X230539Y351519D01*
X230517Y351565D01*
X230503Y351614D01*
X230443Y351722D01*
X230390Y351834D01*
X230358Y351874D01*
X230333Y351918D01*
X230175Y352104D01*
X230123Y352156D01*
X230123Y354496D01*
X230120Y354522D01*
X230122Y354548D01*
X230100Y354695D01*
X230083Y354842D01*
X230075Y354867D01*
X230071Y354893D01*
X230016Y355030D01*
X229966Y355170D01*
X229952Y355192D01*
X229942Y355217D01*
X229857Y355338D01*
X229777Y355463D01*
X229758Y355481D01*
X229743Y355503D01*
X229633Y355602D01*
X229526Y355705D01*
X229504Y355719D01*
X229484Y355736D01*
X229354Y355808D01*
X229227Y355884D01*
X229202Y355892D01*
X229179Y355905D01*
X229036Y355945D01*
X228895Y355990D01*
X228869Y355992D01*
X228844Y356000D01*
X228600Y356019D01*
X227993Y356019D01*
X227993Y361060D01*
X227990Y361086D01*
X227992Y361112D01*
X227970Y361259D01*
X227954Y361406D01*
X227945Y361431D01*
X227941Y361457D01*
X227886Y361594D01*
X227836Y361734D01*
X227822Y361756D01*
X227812Y361780D01*
X227728Y361902D01*
X227647Y362027D01*
X227628Y362045D01*
X227613Y362067D01*
X227503Y362166D01*
X227396Y362269D01*
X227373Y362283D01*
X227354Y362300D01*
X227224Y362372D01*
X227097Y362448D01*
X227072Y362456D01*
X227049Y362469D01*
X226906Y362509D01*
X226765Y362555D01*
X226739Y362557D01*
X226713Y362564D01*
X226470Y362583D01*
X222067Y362583D01*
X222022Y362710D01*
X222008Y362732D01*
X221998Y362757D01*
X221913Y362878D01*
X221833Y363003D01*
X221814Y363021D01*
X221799Y363043D01*
X221689Y363142D01*
X221582Y363245D01*
X221560Y363259D01*
X221540Y363276D01*
X221410Y363348D01*
X221283Y363424D01*
X221258Y363432D01*
X221235Y363445D01*
X221092Y363485D01*
X220951Y363530D01*
X220925Y363532D01*
X220900Y363540D01*
X220656Y363559D01*
X218764Y363559D01*
X218245Y364078D01*
X218166Y364140D01*
X218094Y364210D01*
X218030Y364248D01*
X217972Y364294D01*
X217881Y364337D01*
X217795Y364389D01*
X217724Y364412D01*
X217657Y364443D01*
X217559Y364465D01*
X217463Y364495D01*
X217389Y364501D01*
X217316Y364517D01*
X217216Y364515D01*
X217116Y364523D01*
X217042Y364512D01*
X216968Y364511D01*
X216871Y364486D01*
X216771Y364471D01*
X216702Y364444D01*
X216630Y364426D01*
X216541Y364380D01*
X216447Y364343D01*
X216386Y364300D01*
X216320Y364266D01*
X216244Y364201D01*
X216161Y364144D01*
X216111Y364089D01*
X216055Y364040D01*
X215995Y363960D01*
X215928Y363885D01*
X215892Y363820D01*
X215847Y363760D01*
X215808Y363668D01*
X215759Y363580D01*
X215739Y363508D01*
X215709Y363440D01*
X215692Y363341D01*
X215664Y363245D01*
X215656Y363145D01*
X215648Y363097D01*
X215650Y363061D01*
X215645Y363001D01*
X215645Y350008D01*
X214823Y349187D01*
X214807Y349167D01*
X214787Y349150D01*
X214699Y349030D01*
X214607Y348914D01*
X214596Y348890D01*
X214580Y348869D01*
X214521Y348733D01*
X214458Y348599D01*
X214452Y348573D01*
X214442Y348549D01*
X214416Y348403D01*
X214384Y348258D01*
X214385Y348232D01*
X214380Y348206D01*
X214388Y348058D01*
X214390Y347910D01*
X214397Y347884D01*
X214398Y347858D01*
X214439Y347716D01*
X214475Y347572D01*
X214487Y347549D01*
X214495Y347523D01*
X214565Y347398D01*
X214565Y341862D01*
X214576Y341762D01*
X214578Y341662D01*
X214596Y341590D01*
X214605Y341516D01*
X214638Y341421D01*
X214663Y341324D01*
X214697Y341258D01*
X214722Y341188D01*
X214777Y341103D01*
X214823Y341014D01*
X214871Y340957D01*
X214911Y340895D01*
X214983Y340825D01*
X215048Y340749D01*
X215108Y340705D01*
X215162Y340653D01*
X215248Y340601D01*
X215329Y340542D01*
X215397Y340512D01*
X215461Y340474D01*
X215557Y340443D01*
X215649Y340404D01*
X215722Y340390D01*
X215793Y340368D01*
X215893Y340360D01*
X215992Y340342D01*
X216066Y340346D01*
X216140Y340340D01*
X216240Y340355D01*
G37*
%LPC*%
G36*
X404827Y235934D02*
X404827Y235934D01*
X401922Y237138D01*
X399698Y239362D01*
X398494Y242267D01*
X398494Y245413D01*
X399698Y248318D01*
X401922Y250542D01*
X404827Y251746D01*
X407973Y251746D01*
X410878Y250542D01*
X413102Y248318D01*
X414306Y245413D01*
X414306Y242267D01*
X413102Y239362D01*
X410878Y237138D01*
X407973Y235934D01*
X404827Y235934D01*
G37*
%LPD*%
%LPC*%
G36*
X182587Y306119D02*
X182587Y306119D01*
X182587Y324613D01*
X188581Y324613D01*
X188581Y308325D01*
X188408Y307679D01*
X188073Y307100D01*
X187600Y306627D01*
X187021Y306292D01*
X186375Y306119D01*
X182587Y306119D01*
G37*
%LPD*%
%LPC*%
G36*
X170499Y330707D02*
X170499Y330707D01*
X170499Y346995D01*
X170672Y347641D01*
X171007Y348220D01*
X171480Y348693D01*
X172059Y349028D01*
X172705Y349201D01*
X176493Y349201D01*
X176493Y330707D01*
X170499Y330707D01*
G37*
%LPD*%
%LPC*%
G36*
X172705Y306119D02*
X172705Y306119D01*
X172059Y306292D01*
X171480Y306627D01*
X171007Y307100D01*
X170672Y307679D01*
X170499Y308325D01*
X170499Y324613D01*
X176493Y324613D01*
X176493Y306119D01*
X172705Y306119D01*
G37*
%LPD*%
%LPC*%
G36*
X213859Y190947D02*
X213859Y190947D01*
X213859Y196235D01*
X214032Y196881D01*
X214367Y197460D01*
X214840Y197933D01*
X215419Y198268D01*
X216065Y198441D01*
X228353Y198441D01*
X228353Y190947D01*
X213859Y190947D01*
G37*
%LPD*%
%LPC*%
G36*
X213859Y267147D02*
X213859Y267147D01*
X213859Y272435D01*
X214032Y273081D01*
X214367Y273660D01*
X214840Y274133D01*
X215419Y274468D01*
X216065Y274641D01*
X228353Y274641D01*
X228353Y267147D01*
X213859Y267147D01*
G37*
%LPD*%
%LPC*%
G36*
X234447Y253559D02*
X234447Y253559D01*
X234447Y261053D01*
X248941Y261053D01*
X248941Y255765D01*
X248768Y255119D01*
X248433Y254540D01*
X247960Y254067D01*
X247381Y253732D01*
X246735Y253559D01*
X234447Y253559D01*
G37*
%LPD*%
%LPC*%
G36*
X216065Y253559D02*
X216065Y253559D01*
X215419Y253732D01*
X214840Y254067D01*
X214367Y254540D01*
X214032Y255119D01*
X213859Y255765D01*
X213859Y261053D01*
X228353Y261053D01*
X228353Y253559D01*
X216065Y253559D01*
G37*
%LPD*%
%LPC*%
G36*
X216065Y177359D02*
X216065Y177359D01*
X215419Y177532D01*
X214840Y177867D01*
X214367Y178340D01*
X214032Y178919D01*
X213859Y179565D01*
X213859Y184853D01*
X228353Y184853D01*
X228353Y177359D01*
X216065Y177359D01*
G37*
%LPD*%
%LPC*%
G36*
X262018Y479776D02*
X262018Y479776D01*
X260650Y480221D01*
X259367Y480875D01*
X258203Y481721D01*
X257185Y482739D01*
X256339Y483903D01*
X255685Y485186D01*
X255240Y486554D01*
X255015Y487976D01*
X255015Y493269D01*
X262129Y493269D01*
X262129Y479759D01*
X262018Y479776D01*
G37*
%LPD*%
%LPC*%
G36*
X152247Y498347D02*
X152247Y498347D01*
X152247Y505341D01*
X156035Y505341D01*
X156681Y505168D01*
X157260Y504833D01*
X157733Y504360D01*
X158068Y503781D01*
X158241Y503135D01*
X158241Y498347D01*
X152247Y498347D01*
G37*
%LPD*%
%LPC*%
G36*
X193547Y253847D02*
X193547Y253847D01*
X193547Y259841D01*
X198335Y259841D01*
X198981Y259668D01*
X199560Y259333D01*
X200033Y258860D01*
X200368Y258281D01*
X200541Y257635D01*
X200541Y253847D01*
X193547Y253847D01*
G37*
%LPD*%
%LPC*%
G36*
X193547Y177647D02*
X193547Y177647D01*
X193547Y183641D01*
X198335Y183641D01*
X198981Y183468D01*
X199560Y183133D01*
X200033Y182660D01*
X200368Y182081D01*
X200541Y181435D01*
X200541Y177647D01*
X193547Y177647D01*
G37*
%LPD*%
%LPC*%
G36*
X358647Y177647D02*
X358647Y177647D01*
X358647Y183641D01*
X363435Y183641D01*
X364081Y183468D01*
X364660Y183133D01*
X365133Y182660D01*
X365468Y182081D01*
X365641Y181435D01*
X365641Y177647D01*
X358647Y177647D01*
G37*
%LPD*%
%LPC*%
G36*
X281787Y335787D02*
X281787Y335787D01*
X281787Y342781D01*
X285575Y342781D01*
X286221Y342608D01*
X286800Y342273D01*
X287273Y341800D01*
X287608Y341221D01*
X287781Y340575D01*
X287781Y335787D01*
X281787Y335787D01*
G37*
%LPD*%
%LPC*%
G36*
X295147Y406247D02*
X295147Y406247D01*
X295147Y412241D01*
X299935Y412241D01*
X300581Y412068D01*
X301160Y411733D01*
X301633Y411260D01*
X301968Y410681D01*
X302141Y410035D01*
X302141Y406247D01*
X295147Y406247D01*
G37*
%LPD*%
%LPC*%
G36*
X358647Y261467D02*
X358647Y261467D01*
X358647Y267461D01*
X363435Y267461D01*
X364081Y267288D01*
X364660Y266953D01*
X365133Y266480D01*
X365468Y265901D01*
X365641Y265255D01*
X365641Y261467D01*
X358647Y261467D01*
G37*
%LPD*%
%LPC*%
G36*
X345559Y261467D02*
X345559Y261467D01*
X345559Y265255D01*
X345732Y265901D01*
X346067Y266480D01*
X346540Y266953D01*
X347119Y267288D01*
X347765Y267461D01*
X352553Y267461D01*
X352553Y261467D01*
X345559Y261467D01*
G37*
%LPD*%
%LPC*%
G36*
X320159Y406247D02*
X320159Y406247D01*
X320159Y410035D01*
X320332Y410681D01*
X320667Y411260D01*
X321140Y411733D01*
X321719Y412068D01*
X322365Y412241D01*
X327153Y412241D01*
X327153Y406247D01*
X320159Y406247D01*
G37*
%LPD*%
%LPC*%
G36*
X180459Y253847D02*
X180459Y253847D01*
X180459Y257635D01*
X180632Y258281D01*
X180967Y258860D01*
X181440Y259333D01*
X182019Y259668D01*
X182665Y259841D01*
X187453Y259841D01*
X187453Y253847D01*
X180459Y253847D01*
G37*
%LPD*%
%LPC*%
G36*
X282059Y406247D02*
X282059Y406247D01*
X282059Y410035D01*
X282232Y410681D01*
X282567Y411260D01*
X283040Y411733D01*
X283619Y412068D01*
X284265Y412241D01*
X289053Y412241D01*
X289053Y406247D01*
X282059Y406247D01*
G37*
%LPD*%
%LPC*%
G36*
X180459Y177647D02*
X180459Y177647D01*
X180459Y181435D01*
X180632Y182081D01*
X180967Y182660D01*
X181440Y183133D01*
X182019Y183468D01*
X182665Y183641D01*
X187453Y183641D01*
X187453Y177647D01*
X180459Y177647D01*
G37*
%LPD*%
%LPC*%
G36*
X345559Y177647D02*
X345559Y177647D01*
X345559Y181435D01*
X345732Y182081D01*
X346067Y182660D01*
X346540Y183133D01*
X347119Y183468D01*
X347765Y183641D01*
X352553Y183641D01*
X352553Y177647D01*
X345559Y177647D01*
G37*
%LPD*%
%LPC*%
G36*
X281787Y322699D02*
X281787Y322699D01*
X281787Y329693D01*
X287781Y329693D01*
X287781Y324905D01*
X287608Y324259D01*
X287273Y323680D01*
X286800Y323207D01*
X286221Y322872D01*
X285575Y322699D01*
X281787Y322699D01*
G37*
%LPD*%
%LPC*%
G36*
X171959Y498347D02*
X171959Y498347D01*
X171959Y503135D01*
X172132Y503781D01*
X172467Y504360D01*
X172940Y504833D01*
X173519Y505168D01*
X174165Y505341D01*
X177953Y505341D01*
X177953Y498347D01*
X171959Y498347D01*
G37*
%LPD*%
%LPC*%
G36*
X108459Y472947D02*
X108459Y472947D01*
X108459Y477735D01*
X108632Y478381D01*
X108967Y478960D01*
X109440Y479433D01*
X110019Y479768D01*
X110665Y479941D01*
X114453Y479941D01*
X114453Y472947D01*
X108459Y472947D01*
G37*
%LPD*%
%LPC*%
G36*
X171959Y295147D02*
X171959Y295147D01*
X171959Y299935D01*
X172132Y300581D01*
X172467Y301160D01*
X172940Y301633D01*
X173519Y301968D01*
X174165Y302141D01*
X177953Y302141D01*
X177953Y295147D01*
X171959Y295147D01*
G37*
%LPD*%
%LPC*%
G36*
X155447Y362459D02*
X155447Y362459D01*
X155447Y368453D01*
X162441Y368453D01*
X162441Y364665D01*
X162268Y364019D01*
X161933Y363440D01*
X161460Y362967D01*
X160881Y362632D01*
X160235Y362459D01*
X155447Y362459D01*
G37*
%LPD*%
%LPC*%
G36*
X130047Y362459D02*
X130047Y362459D01*
X130047Y368453D01*
X137041Y368453D01*
X137041Y364665D01*
X136868Y364019D01*
X136533Y363440D01*
X136060Y362967D01*
X135481Y362632D01*
X134835Y362459D01*
X130047Y362459D01*
G37*
%LPD*%
%LPC*%
G36*
X108459Y427227D02*
X108459Y427227D01*
X108459Y432015D01*
X108632Y432661D01*
X108967Y433240D01*
X109440Y433713D01*
X110019Y434048D01*
X110665Y434221D01*
X114453Y434221D01*
X114453Y427227D01*
X108459Y427227D01*
G37*
%LPD*%
%LPC*%
G36*
X110665Y459859D02*
X110665Y459859D01*
X110019Y460032D01*
X109440Y460367D01*
X108967Y460840D01*
X108632Y461419D01*
X108459Y462065D01*
X108459Y466853D01*
X114453Y466853D01*
X114453Y459859D01*
X110665Y459859D01*
G37*
%LPD*%
%LPC*%
G36*
X174165Y485259D02*
X174165Y485259D01*
X173519Y485432D01*
X172940Y485767D01*
X172467Y486240D01*
X172132Y486819D01*
X171959Y487465D01*
X171959Y492253D01*
X177953Y492253D01*
X177953Y485259D01*
X174165Y485259D01*
G37*
%LPD*%
%LPC*%
G36*
X174165Y282059D02*
X174165Y282059D01*
X173519Y282232D01*
X172940Y282567D01*
X172467Y283040D01*
X172132Y283619D01*
X171959Y284265D01*
X171959Y289053D01*
X177953Y289053D01*
X177953Y282059D01*
X174165Y282059D01*
G37*
%LPD*%
%LPC*%
G36*
X110665Y414139D02*
X110665Y414139D01*
X110019Y414312D01*
X109440Y414647D01*
X108967Y415120D01*
X108632Y415699D01*
X108459Y416345D01*
X108459Y421133D01*
X114453Y421133D01*
X114453Y414139D01*
X110665Y414139D01*
G37*
%LPD*%
%LPC*%
G36*
X144565Y362459D02*
X144565Y362459D01*
X143919Y362632D01*
X143340Y362967D01*
X142867Y363440D01*
X142532Y364019D01*
X142359Y364665D01*
X142359Y368453D01*
X149353Y368453D01*
X149353Y362459D01*
X144565Y362459D01*
G37*
%LPD*%
%LPC*%
G36*
X119165Y362459D02*
X119165Y362459D01*
X118519Y362632D01*
X117940Y362967D01*
X117467Y363440D01*
X117132Y364019D01*
X116959Y364665D01*
X116959Y368453D01*
X123953Y368453D01*
X123953Y362459D01*
X119165Y362459D01*
G37*
%LPD*%
%LPC*%
G36*
X151023Y233423D02*
X151023Y233423D01*
X151023Y236941D01*
X159835Y236941D01*
X160481Y236768D01*
X161060Y236433D01*
X161533Y235960D01*
X161868Y235381D01*
X162041Y234735D01*
X162041Y233423D01*
X151023Y233423D01*
G37*
%LPD*%
%LPC*%
G36*
X245423Y379504D02*
X245423Y379504D01*
X245423Y387897D01*
X249441Y387897D01*
X249441Y381710D01*
X249268Y381064D01*
X248933Y380485D01*
X248460Y380012D01*
X247881Y379677D01*
X247235Y379504D01*
X245423Y379504D01*
G37*
%LPD*%
%LPC*%
G36*
X247493Y346583D02*
X247493Y346583D01*
X247493Y350101D01*
X248055Y350101D01*
X248701Y349928D01*
X249280Y349593D01*
X249753Y349120D01*
X250088Y348541D01*
X250261Y347895D01*
X250261Y346583D01*
X247493Y346583D01*
G37*
%LPD*%
%LPC*%
G36*
X224385Y356019D02*
X224385Y356019D01*
X223739Y356192D01*
X223160Y356527D01*
X222687Y357000D01*
X222352Y357579D01*
X222179Y358225D01*
X222179Y359537D01*
X224947Y359537D01*
X224947Y356019D01*
X224385Y356019D01*
G37*
%LPD*%
%LPC*%
G36*
X231399Y264099D02*
X231399Y264099D01*
X231399Y264101D01*
X231401Y264101D01*
X231401Y264099D01*
X231399Y264099D01*
G37*
%LPD*%
%LPC*%
G36*
X179539Y327659D02*
X179539Y327659D01*
X179539Y327661D01*
X179541Y327661D01*
X179541Y327659D01*
X179539Y327659D01*
G37*
%LPD*%
D10*
X200000Y292100D03*
X181000Y292100D03*
X136500Y469900D03*
X117500Y469900D03*
X136500Y424180D03*
X117500Y424180D03*
D11*
X152400Y390500D03*
X152400Y371500D03*
X127000Y390500D03*
X127000Y371500D03*
X292100Y384200D03*
X292100Y403200D03*
X190500Y155600D03*
X190500Y174600D03*
X190500Y231800D03*
X190500Y250800D03*
X355600Y155600D03*
X355600Y174600D03*
X355600Y239420D03*
X355600Y258420D03*
X231140Y308000D03*
X231140Y327000D03*
D10*
X259740Y332740D03*
X278740Y332740D03*
X149200Y495300D03*
X130200Y495300D03*
D11*
X330200Y384200D03*
X330200Y403200D03*
D12*
X369500Y528320D03*
X369500Y513320D03*
X369500Y498320D03*
X369500Y483320D03*
X369500Y468320D03*
X369500Y453320D03*
X369500Y438320D03*
X369500Y423320D03*
X369500Y408320D03*
X369500Y393320D03*
X369500Y378320D03*
X369500Y363320D03*
X369500Y348320D03*
D13*
X384500Y329570D03*
X399500Y329570D03*
X414500Y329570D03*
X429500Y329570D03*
X444500Y329570D03*
X459500Y329570D03*
X474500Y329570D03*
X489500Y329570D03*
D12*
X504500Y348320D03*
X504500Y363320D03*
X504500Y378320D03*
X504500Y393320D03*
X504500Y408320D03*
X504500Y423320D03*
X504500Y438320D03*
X504500Y453320D03*
X504500Y468320D03*
X504500Y483320D03*
X504500Y498320D03*
X504500Y513320D03*
X504500Y528320D03*
D14*
X173520Y459800D03*
X173520Y451800D03*
X173520Y443800D03*
X173520Y435800D03*
X173520Y427800D03*
X173520Y419800D03*
X173520Y411800D03*
X173520Y403800D03*
D15*
X187900Y389420D03*
X195900Y389420D03*
X203900Y389420D03*
X211900Y389420D03*
X219900Y389420D03*
X227900Y389420D03*
X235900Y389420D03*
X243900Y389420D03*
D14*
X258280Y403800D03*
X258280Y411800D03*
X258280Y419800D03*
X258280Y427800D03*
X258280Y435800D03*
X258280Y443800D03*
X258280Y451800D03*
X258280Y459800D03*
D15*
X243900Y474180D03*
X235900Y474180D03*
X227900Y474180D03*
X219900Y474180D03*
X211900Y474180D03*
X203900Y474180D03*
X195900Y474180D03*
X187900Y474180D03*
D16*
X303200Y241300D03*
D17*
X231400Y264100D03*
X231400Y218500D03*
D16*
X303200Y165100D03*
D17*
X231400Y187900D03*
X231400Y142300D03*
D18*
X139700Y455540D03*
X139700Y438540D03*
D10*
X200000Y495300D03*
X181000Y495300D03*
X207620Y358140D03*
X188620Y358140D03*
D19*
X232970Y361060D03*
X232970Y345060D03*
X239470Y361060D03*
X239470Y345060D03*
X226470Y345060D03*
X226470Y361060D03*
X245970Y361060D03*
X245970Y345060D03*
D20*
X147000Y257900D03*
X147000Y173900D03*
X94000Y257900D03*
X94000Y173900D03*
D21*
X149500Y231900D03*
X149500Y223900D03*
X149500Y215900D03*
X149500Y207900D03*
X149500Y199900D03*
D22*
X345440Y488696D02*
X345440Y501904D01*
X325120Y501904D02*
X325120Y488696D01*
X304800Y488696D02*
X304800Y501904D01*
X284480Y501904D02*
X284480Y488696D01*
X264160Y488696D02*
X264160Y501904D01*
D23*
X406400Y243840D03*
D24*
X179540Y327660D03*
X206540Y327660D03*
D25*
X203800Y187900D02*
X190500Y174600D01*
X203800Y187900D02*
X231400Y187900D01*
D26*
X171571Y231900D02*
X149500Y231900D01*
D25*
X190500Y250800D02*
X218100Y250800D01*
X231400Y264100D01*
D26*
X355600Y258420D02*
X355600Y300670D01*
X384500Y329570D01*
D25*
X208815Y508388D02*
X191185Y508388D01*
X178097Y495300D02*
X149200Y495300D01*
X221903Y495300D02*
X264160Y495300D01*
X191185Y508388D02*
X178097Y495300D01*
X208815Y508388D02*
X221903Y495300D01*
D26*
X187900Y474180D02*
X181000Y481080D01*
X181000Y495300D01*
D27*
X369500Y348320D02*
X384500Y333320D01*
X384500Y329570D01*
X489500Y329570D02*
X489500Y333320D01*
X504500Y348320D01*
D26*
X489500Y329570D02*
X489500Y290280D01*
X490220Y289560D01*
D27*
X239752Y345342D02*
X239470Y345060D01*
D25*
X259740Y332740D02*
X263220Y329260D01*
X266652Y325828D01*
X266652Y322925D01*
X350157Y239420D02*
X355600Y239420D01*
X350157Y239420D02*
X266652Y322925D01*
D26*
X233680Y360350D02*
X232970Y361060D01*
X238276Y349033D02*
X238276Y346254D01*
X239470Y345060D01*
X238276Y349033D02*
X233680Y353629D01*
X233680Y360350D01*
X239470Y345060D02*
X240664Y343866D01*
X240664Y341087D01*
X252491Y329260D01*
X263220Y329260D01*
D25*
X231140Y308000D02*
X231140Y295263D01*
X266612Y259791D01*
X348688Y162512D02*
X355600Y155600D01*
X266612Y209985D02*
X266612Y259791D01*
X266612Y209985D02*
X314085Y162512D01*
X348688Y162512D01*
X228328Y305188D02*
X231140Y308000D01*
X292100Y384200D02*
X330200Y384200D01*
X331800Y382600D01*
X292100Y384200D02*
X277880Y384200D01*
X258868Y403212D01*
X258280Y403212D01*
D28*
X173520Y459800D02*
X150092Y483228D01*
X140806Y483228D01*
X128734Y495300D02*
X127000Y495300D01*
X128734Y495300D02*
X140806Y483228D01*
X258629Y523240D02*
X275336Y506533D01*
X275336Y504444D02*
X284480Y495300D01*
X275336Y504444D02*
X275336Y506533D01*
X258629Y523240D02*
X154940Y523240D01*
X130200Y498500D01*
X130200Y495300D01*
D26*
X351080Y363320D02*
X369500Y363320D01*
X351080Y363320D02*
X330200Y384200D01*
X226470Y345060D02*
X217780Y336370D01*
X217780Y304800D01*
X205080Y292100D01*
X200000Y292100D01*
D25*
X215240Y292100D02*
X231140Y308000D01*
X215240Y292100D02*
X200000Y292100D01*
D26*
X174964Y458356D02*
X173520Y459800D01*
X174964Y458356D02*
X182368Y458356D01*
X184451Y456273D01*
X184451Y431327D02*
X182368Y429244D01*
X184451Y431327D02*
X184451Y456273D01*
X182368Y429244D02*
X180324Y429244D01*
X177800Y426720D01*
X172076Y426356D02*
X164672Y426356D01*
X172076Y426356D02*
X173520Y427800D01*
X152400Y414084D02*
X152400Y390500D01*
X152400Y414084D02*
X164672Y426356D01*
D27*
X244268Y364823D02*
X244268Y362762D01*
X245970Y361060D01*
X213852Y387468D02*
X211900Y389420D01*
X213852Y387468D02*
X213852Y380783D01*
X223455Y371180D01*
X237911Y371180D01*
X244268Y364823D01*
X205852Y387468D02*
X203900Y389420D01*
X205852Y387468D02*
X205852Y380783D01*
X238760Y361770D02*
X239470Y361060D01*
X220027Y366608D02*
X205852Y380783D01*
X220027Y366608D02*
X235983Y366608D01*
X238760Y363831D01*
X238760Y361770D01*
D28*
X195900Y474180D02*
X195900Y488000D01*
X203200Y495300D01*
D26*
X378473Y476589D02*
X380556Y478672D01*
X380556Y502968D02*
X378473Y505051D01*
X377769Y505051D01*
X369500Y513320D01*
X378473Y476589D02*
X355604Y476589D01*
X298815Y419800D02*
X258280Y419800D01*
X298815Y419800D02*
X355604Y476589D01*
X380556Y478672D02*
X380556Y502968D01*
D28*
X258708Y428228D02*
X258280Y427800D01*
D26*
X355600Y520700D02*
X363220Y528320D01*
X355600Y520700D02*
X355600Y484488D01*
X298912Y427800D02*
X258280Y427800D01*
X298912Y427800D02*
X355600Y484488D01*
X365760Y525780D02*
X363220Y528320D01*
X139700Y469900D02*
X139700Y455540D01*
X139700Y469900D02*
X136500Y469900D01*
X157800Y451800D02*
X173520Y451800D01*
X157800Y451800D02*
X139700Y469900D01*
X161200Y443800D02*
X141580Y424180D01*
X136500Y424180D01*
X161200Y443800D02*
X173520Y443800D01*
X139700Y427380D02*
X136500Y424180D01*
X139700Y427380D02*
X139700Y438540D01*
X128220Y390500D02*
X127000Y390500D01*
D28*
X336296Y504444D02*
X345440Y495300D01*
X336296Y504444D02*
X336296Y506533D01*
X127000Y390500D02*
X97694Y390500D01*
X86108Y402086D01*
X311969Y530860D02*
X336296Y506533D01*
X311969Y530860D02*
X119894Y530860D01*
X86108Y497074D01*
X86108Y402086D01*
D26*
X172076Y434356D02*
X173520Y435800D01*
X146812Y410312D02*
X127000Y390500D01*
X164672Y434356D02*
X172076Y434356D01*
X146812Y416496D02*
X146812Y410312D01*
X146812Y416496D02*
X164672Y434356D01*
D28*
X289109Y477520D02*
X295656Y484067D01*
X276000Y477520D02*
X258280Y459800D01*
X295656Y484067D02*
X295656Y486156D01*
X304800Y495300D01*
X289109Y477520D02*
X276000Y477520D01*
X258660Y452180D02*
X258280Y451800D01*
X315976Y484067D02*
X315976Y486156D01*
X325120Y495300D01*
X284089Y452180D02*
X258660Y452180D01*
X284089Y452180D02*
X315976Y484067D01*
X188620Y358140D02*
X187900Y358860D01*
X187900Y389420D01*
D25*
X190500Y155600D02*
X206400Y139700D01*
X228600Y139700D01*
X203800Y218500D02*
X190500Y231800D01*
X203800Y218500D02*
X231400Y218500D01*
X197412Y162512D02*
X190500Y155600D01*
X251988Y177585D02*
X251988Y198215D01*
X241300Y208903D02*
X241300Y215900D01*
X241300Y208903D02*
X251988Y198215D01*
X236915Y162512D02*
X197412Y162512D01*
X236915Y162512D02*
X251988Y177585D01*
D26*
X151444Y201844D02*
X149500Y199900D01*
X151444Y201844D02*
X160973Y201844D01*
X163056Y203927D01*
X163056Y204356D01*
X190500Y231800D01*
D25*
X207620Y328740D02*
X207620Y358140D01*
X207620Y328740D02*
X206540Y327660D01*
M02*
