G04 EAGLE Gerber RS-274X export*
G75*
%MOMM*%
%FSLAX34Y34*%
%LPD*%
%INSoldermask Top*%
%IPPOS*%
%AMOC8*
5,1,8,0,0,1.08239X$1,22.5*%
G01*
%ADD10R,1.503200X1.703200*%
%ADD11R,1.703200X1.503200*%
%ADD12R,1.703200X0.838200*%
%ADD13R,0.838200X1.703200*%
%ADD14R,1.678200X0.803200*%
%ADD15R,0.803200X1.678200*%
%ADD16R,6.403200X6.003200*%
%ADD17R,3.203200X1.803200*%
%ADD18R,1.603200X0.903200*%
%ADD19R,0.553200X0.703200*%
%ADD20R,2.403200X2.703200*%
%ADD21R,2.203200X0.703200*%
%ADD22C,1.524000*%
%ADD23C,2.061400*%
%ADD24C,3.203200*%
%ADD25R,1.503200X4.003200*%


D10*
X200000Y292100D03*
X181000Y292100D03*
X136500Y469900D03*
X117500Y469900D03*
X136500Y424180D03*
X117500Y424180D03*
D11*
X152400Y390500D03*
X152400Y371500D03*
X127000Y390500D03*
X127000Y371500D03*
X292100Y384200D03*
X292100Y403200D03*
X190500Y155600D03*
X190500Y174600D03*
X190500Y231800D03*
X190500Y250800D03*
X355600Y155600D03*
X355600Y174600D03*
X355600Y239420D03*
X355600Y258420D03*
X231140Y308000D03*
X231140Y327000D03*
D10*
X259740Y332740D03*
X278740Y332740D03*
X149200Y495300D03*
X130200Y495300D03*
D11*
X330200Y384200D03*
X330200Y403200D03*
D12*
X369500Y528320D03*
X369500Y513320D03*
X369500Y498320D03*
X369500Y483320D03*
X369500Y468320D03*
X369500Y453320D03*
X369500Y438320D03*
X369500Y423320D03*
X369500Y408320D03*
X369500Y393320D03*
X369500Y378320D03*
X369500Y363320D03*
X369500Y348320D03*
D13*
X384500Y329570D03*
X399500Y329570D03*
X414500Y329570D03*
X429500Y329570D03*
X444500Y329570D03*
X459500Y329570D03*
X474500Y329570D03*
X489500Y329570D03*
D12*
X504500Y348320D03*
X504500Y363320D03*
X504500Y378320D03*
X504500Y393320D03*
X504500Y408320D03*
X504500Y423320D03*
X504500Y438320D03*
X504500Y453320D03*
X504500Y468320D03*
X504500Y483320D03*
X504500Y498320D03*
X504500Y513320D03*
X504500Y528320D03*
D14*
X173520Y459800D03*
X173520Y451800D03*
X173520Y443800D03*
X173520Y435800D03*
X173520Y427800D03*
X173520Y419800D03*
X173520Y411800D03*
X173520Y403800D03*
D15*
X187900Y389420D03*
X195900Y389420D03*
X203900Y389420D03*
X211900Y389420D03*
X219900Y389420D03*
X227900Y389420D03*
X235900Y389420D03*
X243900Y389420D03*
D14*
X258280Y403800D03*
X258280Y411800D03*
X258280Y419800D03*
X258280Y427800D03*
X258280Y435800D03*
X258280Y443800D03*
X258280Y451800D03*
X258280Y459800D03*
D15*
X243900Y474180D03*
X235900Y474180D03*
X227900Y474180D03*
X219900Y474180D03*
X211900Y474180D03*
X203900Y474180D03*
X195900Y474180D03*
X187900Y474180D03*
D16*
X303200Y241300D03*
D17*
X231400Y264100D03*
X231400Y218500D03*
D16*
X303200Y165100D03*
D17*
X231400Y187900D03*
X231400Y142300D03*
D18*
X139700Y455540D03*
X139700Y438540D03*
D10*
X200000Y495300D03*
X181000Y495300D03*
X207620Y358140D03*
X188620Y358140D03*
D19*
X232970Y361060D03*
X232970Y345060D03*
X239470Y361060D03*
X239470Y345060D03*
X226470Y345060D03*
X226470Y361060D03*
X245970Y361060D03*
X245970Y345060D03*
D20*
X147000Y257900D03*
X147000Y173900D03*
X94000Y257900D03*
X94000Y173900D03*
D21*
X149500Y231900D03*
X149500Y223900D03*
X149500Y215900D03*
X149500Y207900D03*
X149500Y199900D03*
D22*
X345440Y488696D02*
X345440Y501904D01*
X325120Y501904D02*
X325120Y488696D01*
X304800Y488696D02*
X304800Y501904D01*
X284480Y501904D02*
X284480Y488696D01*
X264160Y488696D02*
X264160Y501904D01*
D23*
X406400Y243840D03*
D24*
X457200Y180340D03*
D25*
X179540Y327660D03*
X206540Y327660D03*
D24*
X88900Y317500D03*
M02*
